G04 #@! TF.GenerationSoftware,KiCad,Pcbnew,(5.1.4)-1*
G04 #@! TF.CreationDate,2019-12-15T01:31:19-05:00*
G04 #@! TF.ProjectId,SolsticeXOver,536f6c73-7469-4636-9558-4f7665722e6b,rev?*
G04 #@! TF.SameCoordinates,Original*
G04 #@! TF.FileFunction,Legend,Top*
G04 #@! TF.FilePolarity,Positive*
%FSLAX46Y46*%
G04 Gerber Fmt 4.6, Leading zero omitted, Abs format (unit mm)*
G04 Created by KiCad (PCBNEW (5.1.4)-1) date 2019-12-15 01:31:19*
%MOMM*%
%LPD*%
G04 APERTURE LIST*
%ADD10C,0.153000*%
%ADD11C,0.203200*%
%ADD12C,0.120000*%
%ADD13C,0.150000*%
G04 APERTURE END LIST*
D10*
X60960000Y-60960000D02*
X60960000Y-109220000D01*
X49530000Y-60960000D02*
X60960000Y-60960000D01*
X49530000Y-109220000D02*
X49530000Y-60960000D01*
X60960000Y-109220000D02*
X49530000Y-109220000D01*
D11*
X52892476Y-101188761D02*
X52989238Y-100898476D01*
X52989238Y-100414666D01*
X52892476Y-100221142D01*
X52795714Y-100124380D01*
X52602190Y-100027619D01*
X52408666Y-100027619D01*
X52215142Y-100124380D01*
X52118380Y-100221142D01*
X52021619Y-100414666D01*
X51924857Y-100801714D01*
X51828095Y-100995238D01*
X51731333Y-101092000D01*
X51537809Y-101188761D01*
X51344285Y-101188761D01*
X51150761Y-101092000D01*
X51054000Y-100995238D01*
X50957238Y-100801714D01*
X50957238Y-100317904D01*
X51054000Y-100027619D01*
X52989238Y-98866476D02*
X52892476Y-99060000D01*
X52795714Y-99156761D01*
X52602190Y-99253523D01*
X52021619Y-99253523D01*
X51828095Y-99156761D01*
X51731333Y-99060000D01*
X51634571Y-98866476D01*
X51634571Y-98576190D01*
X51731333Y-98382666D01*
X51828095Y-98285904D01*
X52021619Y-98189142D01*
X52602190Y-98189142D01*
X52795714Y-98285904D01*
X52892476Y-98382666D01*
X52989238Y-98576190D01*
X52989238Y-98866476D01*
X52989238Y-97028000D02*
X52892476Y-97221523D01*
X52698952Y-97318285D01*
X50957238Y-97318285D01*
X51634571Y-96544190D02*
X51634571Y-95770095D01*
X50957238Y-96253904D02*
X52698952Y-96253904D01*
X52892476Y-96157142D01*
X52989238Y-95963619D01*
X52989238Y-95770095D01*
X52989238Y-95092761D02*
X51634571Y-95092761D01*
X50957238Y-95092761D02*
X51054000Y-95189523D01*
X51150761Y-95092761D01*
X51054000Y-94996000D01*
X50957238Y-95092761D01*
X51150761Y-95092761D01*
X52892476Y-93254285D02*
X52989238Y-93447809D01*
X52989238Y-93834857D01*
X52892476Y-94028380D01*
X52795714Y-94125142D01*
X52602190Y-94221904D01*
X52021619Y-94221904D01*
X51828095Y-94125142D01*
X51731333Y-94028380D01*
X51634571Y-93834857D01*
X51634571Y-93447809D01*
X51731333Y-93254285D01*
X52892476Y-91609333D02*
X52989238Y-91802857D01*
X52989238Y-92189904D01*
X52892476Y-92383428D01*
X52698952Y-92480190D01*
X51924857Y-92480190D01*
X51731333Y-92383428D01*
X51634571Y-92189904D01*
X51634571Y-91802857D01*
X51731333Y-91609333D01*
X51924857Y-91512571D01*
X52118380Y-91512571D01*
X52311904Y-92480190D01*
X52989238Y-89093523D02*
X50957238Y-89093523D01*
X52408666Y-88416190D01*
X50957238Y-87738857D01*
X52989238Y-87738857D01*
X52989238Y-85803619D02*
X52989238Y-86771238D01*
X50957238Y-86771238D01*
X50957238Y-85416571D02*
X50957238Y-84255428D01*
X52989238Y-84836000D02*
X50957238Y-84836000D01*
X52989238Y-82610476D02*
X52989238Y-83578095D01*
X50957238Y-83578095D01*
X52795714Y-79223809D02*
X52892476Y-79320571D01*
X52989238Y-79610857D01*
X52989238Y-79804380D01*
X52892476Y-80094666D01*
X52698952Y-80288190D01*
X52505428Y-80384952D01*
X52118380Y-80481714D01*
X51828095Y-80481714D01*
X51441047Y-80384952D01*
X51247523Y-80288190D01*
X51054000Y-80094666D01*
X50957238Y-79804380D01*
X50957238Y-79610857D01*
X51054000Y-79320571D01*
X51150761Y-79223809D01*
X52989238Y-78352952D02*
X51634571Y-78352952D01*
X52021619Y-78352952D02*
X51828095Y-78256190D01*
X51731333Y-78159428D01*
X51634571Y-77965904D01*
X51634571Y-77772380D01*
X52989238Y-76804761D02*
X52892476Y-76998285D01*
X52795714Y-77095047D01*
X52602190Y-77191809D01*
X52021619Y-77191809D01*
X51828095Y-77095047D01*
X51731333Y-76998285D01*
X51634571Y-76804761D01*
X51634571Y-76514476D01*
X51731333Y-76320952D01*
X51828095Y-76224190D01*
X52021619Y-76127428D01*
X52602190Y-76127428D01*
X52795714Y-76224190D01*
X52892476Y-76320952D01*
X52989238Y-76514476D01*
X52989238Y-76804761D01*
X52892476Y-75353333D02*
X52989238Y-75159809D01*
X52989238Y-74772761D01*
X52892476Y-74579238D01*
X52698952Y-74482476D01*
X52602190Y-74482476D01*
X52408666Y-74579238D01*
X52311904Y-74772761D01*
X52311904Y-75063047D01*
X52215142Y-75256571D01*
X52021619Y-75353333D01*
X51924857Y-75353333D01*
X51731333Y-75256571D01*
X51634571Y-75063047D01*
X51634571Y-74772761D01*
X51731333Y-74579238D01*
X52892476Y-73708380D02*
X52989238Y-73514857D01*
X52989238Y-73127809D01*
X52892476Y-72934285D01*
X52698952Y-72837523D01*
X52602190Y-72837523D01*
X52408666Y-72934285D01*
X52311904Y-73127809D01*
X52311904Y-73418095D01*
X52215142Y-73611619D01*
X52021619Y-73708380D01*
X51924857Y-73708380D01*
X51731333Y-73611619D01*
X51634571Y-73418095D01*
X51634571Y-73127809D01*
X51731333Y-72934285D01*
X52989238Y-71676380D02*
X52892476Y-71869904D01*
X52795714Y-71966666D01*
X52602190Y-72063428D01*
X52021619Y-72063428D01*
X51828095Y-71966666D01*
X51731333Y-71869904D01*
X51634571Y-71676380D01*
X51634571Y-71386095D01*
X51731333Y-71192571D01*
X51828095Y-71095809D01*
X52021619Y-70999047D01*
X52602190Y-70999047D01*
X52795714Y-71095809D01*
X52892476Y-71192571D01*
X52989238Y-71386095D01*
X52989238Y-71676380D01*
X51634571Y-70321714D02*
X52989238Y-69837904D01*
X51634571Y-69354095D01*
X52892476Y-67805904D02*
X52989238Y-67999428D01*
X52989238Y-68386476D01*
X52892476Y-68580000D01*
X52698952Y-68676761D01*
X51924857Y-68676761D01*
X51731333Y-68580000D01*
X51634571Y-68386476D01*
X51634571Y-67999428D01*
X51731333Y-67805904D01*
X51924857Y-67709142D01*
X52118380Y-67709142D01*
X52311904Y-68676761D01*
X52989238Y-66838285D02*
X51634571Y-66838285D01*
X52021619Y-66838285D02*
X51828095Y-66741523D01*
X51731333Y-66644761D01*
X51634571Y-66451238D01*
X51634571Y-66257714D01*
X57984571Y-107006571D02*
X59339238Y-107006571D01*
X58178095Y-107006571D02*
X58081333Y-106909809D01*
X57984571Y-106716285D01*
X57984571Y-106426000D01*
X58081333Y-106232476D01*
X58274857Y-106135714D01*
X59339238Y-106135714D01*
X59339238Y-105168095D02*
X57984571Y-105168095D01*
X57307238Y-105168095D02*
X57404000Y-105264857D01*
X57500761Y-105168095D01*
X57404000Y-105071333D01*
X57307238Y-105168095D01*
X57500761Y-105168095D01*
X59242476Y-104297238D02*
X59339238Y-104103714D01*
X59339238Y-103716666D01*
X59242476Y-103523142D01*
X59048952Y-103426380D01*
X58952190Y-103426380D01*
X58758666Y-103523142D01*
X58661904Y-103716666D01*
X58661904Y-104006952D01*
X58565142Y-104200476D01*
X58371619Y-104297238D01*
X58274857Y-104297238D01*
X58081333Y-104200476D01*
X57984571Y-104006952D01*
X57984571Y-103716666D01*
X58081333Y-103523142D01*
X59339238Y-102555523D02*
X57307238Y-102555523D01*
X59339238Y-101684666D02*
X58274857Y-101684666D01*
X58081333Y-101781428D01*
X57984571Y-101974952D01*
X57984571Y-102265238D01*
X58081333Y-102458761D01*
X58178095Y-102555523D01*
X59339238Y-99846190D02*
X58274857Y-99846190D01*
X58081333Y-99942952D01*
X57984571Y-100136476D01*
X57984571Y-100523523D01*
X58081333Y-100717047D01*
X59242476Y-99846190D02*
X59339238Y-100039714D01*
X59339238Y-100523523D01*
X59242476Y-100717047D01*
X59048952Y-100813809D01*
X58855428Y-100813809D01*
X58661904Y-100717047D01*
X58565142Y-100523523D01*
X58565142Y-100039714D01*
X58468380Y-99846190D01*
X57984571Y-98878571D02*
X59339238Y-98878571D01*
X58178095Y-98878571D02*
X58081333Y-98781809D01*
X57984571Y-98588285D01*
X57984571Y-98298000D01*
X58081333Y-98104476D01*
X58274857Y-98007714D01*
X59339238Y-98007714D01*
X57984571Y-97330380D02*
X57984571Y-96556285D01*
X57307238Y-97040095D02*
X59048952Y-97040095D01*
X59242476Y-96943333D01*
X59339238Y-96749809D01*
X59339238Y-96556285D01*
X59145714Y-95878952D02*
X59242476Y-95782190D01*
X59339238Y-95878952D01*
X59242476Y-95975714D01*
X59145714Y-95878952D01*
X59339238Y-95878952D01*
X59242476Y-94040476D02*
X59339238Y-94234000D01*
X59339238Y-94621047D01*
X59242476Y-94814571D01*
X59145714Y-94911333D01*
X58952190Y-95008095D01*
X58371619Y-95008095D01*
X58178095Y-94911333D01*
X58081333Y-94814571D01*
X57984571Y-94621047D01*
X57984571Y-94234000D01*
X58081333Y-94040476D01*
X59339238Y-92298761D02*
X58274857Y-92298761D01*
X58081333Y-92395523D01*
X57984571Y-92589047D01*
X57984571Y-92976095D01*
X58081333Y-93169619D01*
X59242476Y-92298761D02*
X59339238Y-92492285D01*
X59339238Y-92976095D01*
X59242476Y-93169619D01*
X59048952Y-93266380D01*
X58855428Y-93266380D01*
X58661904Y-93169619D01*
X58565142Y-92976095D01*
X58565142Y-92492285D01*
X58468380Y-92298761D01*
X60016571Y-89299142D02*
X57113714Y-89299142D01*
X59339238Y-86299523D02*
X57307238Y-86299523D01*
X57307238Y-85815714D01*
X57404000Y-85525428D01*
X57597523Y-85331904D01*
X57791047Y-85235142D01*
X58178095Y-85138380D01*
X58468380Y-85138380D01*
X58855428Y-85235142D01*
X59048952Y-85331904D01*
X59242476Y-85525428D01*
X59339238Y-85815714D01*
X59339238Y-86299523D01*
X59242476Y-83493428D02*
X59339238Y-83686952D01*
X59339238Y-84074000D01*
X59242476Y-84267523D01*
X59048952Y-84364285D01*
X58274857Y-84364285D01*
X58081333Y-84267523D01*
X57984571Y-84074000D01*
X57984571Y-83686952D01*
X58081333Y-83493428D01*
X58274857Y-83396666D01*
X58468380Y-83396666D01*
X58661904Y-84364285D01*
X59242476Y-81654952D02*
X59339238Y-81848476D01*
X59339238Y-82235523D01*
X59242476Y-82429047D01*
X59145714Y-82525809D01*
X58952190Y-82622571D01*
X58371619Y-82622571D01*
X58178095Y-82525809D01*
X58081333Y-82429047D01*
X57984571Y-82235523D01*
X57984571Y-81848476D01*
X58081333Y-81654952D01*
X59242476Y-80010000D02*
X59339238Y-80203523D01*
X59339238Y-80590571D01*
X59242476Y-80784095D01*
X59048952Y-80880857D01*
X58274857Y-80880857D01*
X58081333Y-80784095D01*
X57984571Y-80590571D01*
X57984571Y-80203523D01*
X58081333Y-80010000D01*
X58274857Y-79913238D01*
X58468380Y-79913238D01*
X58661904Y-80880857D01*
X59339238Y-79042380D02*
X57984571Y-79042380D01*
X58178095Y-79042380D02*
X58081333Y-78945619D01*
X57984571Y-78752095D01*
X57984571Y-78461809D01*
X58081333Y-78268285D01*
X58274857Y-78171523D01*
X59339238Y-78171523D01*
X58274857Y-78171523D02*
X58081333Y-78074761D01*
X57984571Y-77881238D01*
X57984571Y-77590952D01*
X58081333Y-77397428D01*
X58274857Y-77300666D01*
X59339238Y-77300666D01*
X59339238Y-76333047D02*
X57307238Y-76333047D01*
X58081333Y-76333047D02*
X57984571Y-76139523D01*
X57984571Y-75752476D01*
X58081333Y-75558952D01*
X58178095Y-75462190D01*
X58371619Y-75365428D01*
X58952190Y-75365428D01*
X59145714Y-75462190D01*
X59242476Y-75558952D01*
X59339238Y-75752476D01*
X59339238Y-76139523D01*
X59242476Y-76333047D01*
X59242476Y-73720476D02*
X59339238Y-73914000D01*
X59339238Y-74301047D01*
X59242476Y-74494571D01*
X59048952Y-74591333D01*
X58274857Y-74591333D01*
X58081333Y-74494571D01*
X57984571Y-74301047D01*
X57984571Y-73914000D01*
X58081333Y-73720476D01*
X58274857Y-73623714D01*
X58468380Y-73623714D01*
X58661904Y-74591333D01*
X59339238Y-72752857D02*
X57984571Y-72752857D01*
X58371619Y-72752857D02*
X58178095Y-72656095D01*
X58081333Y-72559333D01*
X57984571Y-72365809D01*
X57984571Y-72172285D01*
X57500761Y-70043523D02*
X57404000Y-69946761D01*
X57307238Y-69753238D01*
X57307238Y-69269428D01*
X57404000Y-69075904D01*
X57500761Y-68979142D01*
X57694285Y-68882380D01*
X57887809Y-68882380D01*
X58178095Y-68979142D01*
X59339238Y-70140285D01*
X59339238Y-68882380D01*
X57307238Y-67624476D02*
X57307238Y-67430952D01*
X57404000Y-67237428D01*
X57500761Y-67140666D01*
X57694285Y-67043904D01*
X58081333Y-66947142D01*
X58565142Y-66947142D01*
X58952190Y-67043904D01*
X59145714Y-67140666D01*
X59242476Y-67237428D01*
X59339238Y-67430952D01*
X59339238Y-67624476D01*
X59242476Y-67818000D01*
X59145714Y-67914761D01*
X58952190Y-68011523D01*
X58565142Y-68108285D01*
X58081333Y-68108285D01*
X57694285Y-68011523D01*
X57500761Y-67914761D01*
X57404000Y-67818000D01*
X57307238Y-67624476D01*
X59339238Y-65011904D02*
X59339238Y-66173047D01*
X59339238Y-65592476D02*
X57307238Y-65592476D01*
X57597523Y-65786000D01*
X57791047Y-65979523D01*
X57887809Y-66173047D01*
X59339238Y-64044285D02*
X59339238Y-63657238D01*
X59242476Y-63463714D01*
X59145714Y-63366952D01*
X58855428Y-63173428D01*
X58468380Y-63076666D01*
X57694285Y-63076666D01*
X57500761Y-63173428D01*
X57404000Y-63270190D01*
X57307238Y-63463714D01*
X57307238Y-63850761D01*
X57404000Y-64044285D01*
X57500761Y-64141047D01*
X57694285Y-64237809D01*
X58178095Y-64237809D01*
X58371619Y-64141047D01*
X58468380Y-64044285D01*
X58565142Y-63850761D01*
X58565142Y-63463714D01*
X58468380Y-63270190D01*
X58371619Y-63173428D01*
X58178095Y-63076666D01*
D12*
X171201883Y-100087304D02*
G75*
G02X190750000Y-106640000I18028117J21347304D01*
G01*
X153155000Y-56105000D02*
X138945000Y-56105000D01*
X138945000Y-56105000D02*
X138945000Y-96195000D01*
X138945000Y-96195000D02*
X153155000Y-96195000D01*
X153155000Y-96195000D02*
X153155000Y-56105000D01*
X146050000Y-53590000D02*
X146050000Y-56105000D01*
X146050000Y-98710000D02*
X146050000Y-96195000D01*
X142370000Y-137080000D02*
X142370000Y-127080000D01*
X190370000Y-137080000D02*
X190370000Y-127080000D01*
X190370000Y-127080000D02*
X142370000Y-127080000D01*
X190370000Y-137080000D02*
X142370000Y-137080000D01*
X190370000Y-114380000D02*
X190370000Y-124380000D01*
X142370000Y-114380000D02*
X142370000Y-124380000D01*
X142370000Y-124380000D02*
X190370000Y-124380000D01*
X142370000Y-114380000D02*
X190370000Y-114380000D01*
X120260000Y-96520000D02*
X117745000Y-96520000D01*
X70140000Y-96520000D02*
X72655000Y-96520000D01*
X117745000Y-89415000D02*
X72655000Y-89415000D01*
X117745000Y-103625000D02*
X117745000Y-89415000D01*
X72655000Y-103625000D02*
X117745000Y-103625000D01*
X72655000Y-89415000D02*
X72655000Y-103625000D01*
X120220000Y-74120000D02*
X118120000Y-74120000D01*
X119170000Y-75170000D02*
X119170000Y-73070000D01*
X117770000Y-81240000D02*
X117770000Y-61000000D01*
X71530000Y-81240000D02*
X71530000Y-61000000D01*
X117770000Y-81240000D02*
X115670000Y-81240000D01*
X115670000Y-81240000D02*
X114620000Y-80190000D01*
X114620000Y-80190000D02*
X113570000Y-81240000D01*
X113570000Y-81240000D02*
X71530000Y-81240000D01*
X117770000Y-61000000D02*
X115670000Y-61000000D01*
X115670000Y-61000000D02*
X114620000Y-62050000D01*
X114620000Y-62050000D02*
X113570000Y-61000000D01*
X113570000Y-61000000D02*
X71530000Y-61000000D01*
X119010000Y-71120000D02*
X117770000Y-71120000D01*
X70290000Y-71120000D02*
X71530000Y-71120000D01*
X127990000Y-127060000D02*
X126190000Y-127060000D01*
X127090000Y-127960000D02*
X127090000Y-126160000D01*
X125890000Y-137580000D02*
X125890000Y-111340000D01*
X70650000Y-137580000D02*
X70650000Y-111340000D01*
X125890000Y-137580000D02*
X124090000Y-137580000D01*
X124090000Y-137580000D02*
X123190000Y-136680000D01*
X123190000Y-136680000D02*
X122290000Y-137580000D01*
X122290000Y-137580000D02*
X70650000Y-137580000D01*
X125890000Y-111340000D02*
X124090000Y-111340000D01*
X124090000Y-111340000D02*
X123190000Y-112240000D01*
X123190000Y-112240000D02*
X122290000Y-111340000D01*
X122290000Y-111340000D02*
X70650000Y-111340000D01*
X126830000Y-124460000D02*
X125890000Y-124460000D01*
X69710000Y-124460000D02*
X70650000Y-124460000D01*
D13*
X181230000Y-49982380D02*
X180658571Y-49982380D01*
X180944285Y-49982380D02*
X180944285Y-48982380D01*
X180849047Y-49125238D01*
X180753809Y-49220476D01*
X180658571Y-49268095D01*
X181658571Y-49887142D02*
X181706190Y-49934761D01*
X181658571Y-49982380D01*
X181610952Y-49934761D01*
X181658571Y-49887142D01*
X181658571Y-49982380D01*
X182325238Y-48982380D02*
X182420476Y-48982380D01*
X182515714Y-49030000D01*
X182563333Y-49077619D01*
X182610952Y-49172857D01*
X182658571Y-49363333D01*
X182658571Y-49601428D01*
X182610952Y-49791904D01*
X182563333Y-49887142D01*
X182515714Y-49934761D01*
X182420476Y-49982380D01*
X182325238Y-49982380D01*
X182230000Y-49934761D01*
X182182380Y-49887142D01*
X182134761Y-49791904D01*
X182087142Y-49601428D01*
X182087142Y-49363333D01*
X182134761Y-49172857D01*
X182182380Y-49077619D01*
X182230000Y-49030000D01*
X182325238Y-48982380D01*
X183277619Y-48982380D02*
X183372857Y-48982380D01*
X183468095Y-49030000D01*
X183515714Y-49077619D01*
X183563333Y-49172857D01*
X183610952Y-49363333D01*
X183610952Y-49601428D01*
X183563333Y-49791904D01*
X183515714Y-49887142D01*
X183468095Y-49934761D01*
X183372857Y-49982380D01*
X183277619Y-49982380D01*
X183182380Y-49934761D01*
X183134761Y-49887142D01*
X183087142Y-49791904D01*
X183039523Y-49601428D01*
X183039523Y-49363333D01*
X183087142Y-49172857D01*
X183134761Y-49077619D01*
X183182380Y-49030000D01*
X183277619Y-48982380D01*
X184039523Y-49982380D02*
X184039523Y-49315714D01*
X184039523Y-49410952D02*
X184087142Y-49363333D01*
X184182380Y-49315714D01*
X184325238Y-49315714D01*
X184420476Y-49363333D01*
X184468095Y-49458571D01*
X184468095Y-49982380D01*
X184468095Y-49458571D02*
X184515714Y-49363333D01*
X184610952Y-49315714D01*
X184753809Y-49315714D01*
X184849047Y-49363333D01*
X184896666Y-49458571D01*
X184896666Y-49982380D01*
X185372857Y-49982380D02*
X185372857Y-48982380D01*
X185372857Y-49458571D02*
X185944285Y-49458571D01*
X185944285Y-49982380D02*
X185944285Y-48982380D01*
X187706190Y-49982380D02*
X187134761Y-49982380D01*
X187420476Y-49982380D02*
X187420476Y-48982380D01*
X187325238Y-49125238D01*
X187230000Y-49220476D01*
X187134761Y-49268095D01*
X188610952Y-48982380D02*
X188134761Y-48982380D01*
X188087142Y-49458571D01*
X188134761Y-49410952D01*
X188230000Y-49363333D01*
X188468095Y-49363333D01*
X188563333Y-49410952D01*
X188610952Y-49458571D01*
X188658571Y-49553809D01*
X188658571Y-49791904D01*
X188610952Y-49887142D01*
X188563333Y-49934761D01*
X188468095Y-49982380D01*
X188230000Y-49982380D01*
X188134761Y-49934761D01*
X188087142Y-49887142D01*
X189515714Y-49315714D02*
X189515714Y-50125238D01*
X189468095Y-50220476D01*
X189420476Y-50268095D01*
X189325238Y-50315714D01*
X189182380Y-50315714D01*
X189087142Y-50268095D01*
X189515714Y-49934761D02*
X189420476Y-49982380D01*
X189230000Y-49982380D01*
X189134761Y-49934761D01*
X189087142Y-49887142D01*
X189039523Y-49791904D01*
X189039523Y-49506190D01*
X189087142Y-49410952D01*
X189134761Y-49363333D01*
X189230000Y-49315714D01*
X189420476Y-49315714D01*
X189515714Y-49363333D01*
X190420476Y-49982380D02*
X190420476Y-49458571D01*
X190372857Y-49363333D01*
X190277619Y-49315714D01*
X190087142Y-49315714D01*
X189991904Y-49363333D01*
X190420476Y-49934761D02*
X190325238Y-49982380D01*
X190087142Y-49982380D01*
X189991904Y-49934761D01*
X189944285Y-49839523D01*
X189944285Y-49744285D01*
X189991904Y-49649047D01*
X190087142Y-49601428D01*
X190325238Y-49601428D01*
X190420476Y-49553809D01*
X190896666Y-49887142D02*
X190944285Y-49934761D01*
X190896666Y-49982380D01*
X190849047Y-49934761D01*
X190896666Y-49887142D01*
X190896666Y-49982380D01*
X192087142Y-49696666D02*
X192563333Y-49696666D01*
X191991904Y-49982380D02*
X192325238Y-48982380D01*
X192658571Y-49982380D01*
X192991904Y-49982380D02*
X192991904Y-49315714D01*
X192991904Y-48982380D02*
X192944285Y-49030000D01*
X192991904Y-49077619D01*
X193039523Y-49030000D01*
X192991904Y-48982380D01*
X192991904Y-49077619D01*
X193468095Y-49982380D02*
X193468095Y-49315714D01*
X193468095Y-49506190D02*
X193515714Y-49410952D01*
X193563333Y-49363333D01*
X193658571Y-49315714D01*
X193753809Y-49315714D01*
X195420476Y-49887142D02*
X195372857Y-49934761D01*
X195229999Y-49982380D01*
X195134761Y-49982380D01*
X194991904Y-49934761D01*
X194896666Y-49839523D01*
X194849047Y-49744285D01*
X194801428Y-49553809D01*
X194801428Y-49410952D01*
X194849047Y-49220476D01*
X194896666Y-49125238D01*
X194991904Y-49030000D01*
X195134761Y-48982380D01*
X195229999Y-48982380D01*
X195372857Y-49030000D01*
X195420476Y-49077619D01*
X195991904Y-49982380D02*
X195896666Y-49934761D01*
X195849047Y-49887142D01*
X195801428Y-49791904D01*
X195801428Y-49506190D01*
X195849047Y-49410952D01*
X195896666Y-49363333D01*
X195991904Y-49315714D01*
X196134761Y-49315714D01*
X196229999Y-49363333D01*
X196277619Y-49410952D01*
X196325238Y-49506190D01*
X196325238Y-49791904D01*
X196277619Y-49887142D01*
X196229999Y-49934761D01*
X196134761Y-49982380D01*
X195991904Y-49982380D01*
X196753809Y-49982380D02*
X196753809Y-49315714D01*
X196753809Y-49506190D02*
X196801428Y-49410952D01*
X196849047Y-49363333D01*
X196944285Y-49315714D01*
X197039523Y-49315714D01*
X197753809Y-49934761D02*
X197658571Y-49982380D01*
X197468095Y-49982380D01*
X197372857Y-49934761D01*
X197325238Y-49839523D01*
X197325238Y-49458571D01*
X197372857Y-49363333D01*
X197468095Y-49315714D01*
X197658571Y-49315714D01*
X197753809Y-49363333D01*
X197801428Y-49458571D01*
X197801428Y-49553809D01*
X197325238Y-49649047D01*
X154512142Y-84197619D02*
X154559761Y-84150000D01*
X154607380Y-84197619D01*
X154559761Y-84245238D01*
X154512142Y-84197619D01*
X154607380Y-84197619D01*
X153702619Y-83769047D02*
X153655000Y-83721428D01*
X153607380Y-83626190D01*
X153607380Y-83388095D01*
X153655000Y-83292857D01*
X153702619Y-83245238D01*
X153797857Y-83197619D01*
X153893095Y-83197619D01*
X154035952Y-83245238D01*
X154607380Y-83816666D01*
X154607380Y-83197619D01*
X153607380Y-82578571D02*
X153607380Y-82483333D01*
X153655000Y-82388095D01*
X153702619Y-82340476D01*
X153797857Y-82292857D01*
X153988333Y-82245238D01*
X154226428Y-82245238D01*
X154416904Y-82292857D01*
X154512142Y-82340476D01*
X154559761Y-82388095D01*
X154607380Y-82483333D01*
X154607380Y-82578571D01*
X154559761Y-82673809D01*
X154512142Y-82721428D01*
X154416904Y-82769047D01*
X154226428Y-82816666D01*
X153988333Y-82816666D01*
X153797857Y-82769047D01*
X153702619Y-82721428D01*
X153655000Y-82673809D01*
X153607380Y-82578571D01*
X154607380Y-81816666D02*
X153940714Y-81816666D01*
X154035952Y-81816666D02*
X153988333Y-81769047D01*
X153940714Y-81673809D01*
X153940714Y-81530952D01*
X153988333Y-81435714D01*
X154083571Y-81388095D01*
X154607380Y-81388095D01*
X154083571Y-81388095D02*
X153988333Y-81340476D01*
X153940714Y-81245238D01*
X153940714Y-81102380D01*
X153988333Y-81007142D01*
X154083571Y-80959523D01*
X154607380Y-80959523D01*
X154607380Y-80483333D02*
X153607380Y-80483333D01*
X154083571Y-80483333D02*
X154083571Y-79911904D01*
X154607380Y-79911904D02*
X153607380Y-79911904D01*
X154607380Y-78150000D02*
X154607380Y-78721428D01*
X154607380Y-78435714D02*
X153607380Y-78435714D01*
X153750238Y-78530952D01*
X153845476Y-78626190D01*
X153893095Y-78721428D01*
X154035952Y-77578571D02*
X153988333Y-77673809D01*
X153940714Y-77721428D01*
X153845476Y-77769047D01*
X153797857Y-77769047D01*
X153702619Y-77721428D01*
X153655000Y-77673809D01*
X153607380Y-77578571D01*
X153607380Y-77388095D01*
X153655000Y-77292857D01*
X153702619Y-77245238D01*
X153797857Y-77197619D01*
X153845476Y-77197619D01*
X153940714Y-77245238D01*
X153988333Y-77292857D01*
X154035952Y-77388095D01*
X154035952Y-77578571D01*
X154083571Y-77673809D01*
X154131190Y-77721428D01*
X154226428Y-77769047D01*
X154416904Y-77769047D01*
X154512142Y-77721428D01*
X154559761Y-77673809D01*
X154607380Y-77578571D01*
X154607380Y-77388095D01*
X154559761Y-77292857D01*
X154512142Y-77245238D01*
X154416904Y-77197619D01*
X154226428Y-77197619D01*
X154131190Y-77245238D01*
X154083571Y-77292857D01*
X154035952Y-77388095D01*
X153940714Y-76340476D02*
X154750238Y-76340476D01*
X154845476Y-76388095D01*
X154893095Y-76435714D01*
X154940714Y-76530952D01*
X154940714Y-76673809D01*
X154893095Y-76769047D01*
X154559761Y-76340476D02*
X154607380Y-76435714D01*
X154607380Y-76626190D01*
X154559761Y-76721428D01*
X154512142Y-76769047D01*
X154416904Y-76816666D01*
X154131190Y-76816666D01*
X154035952Y-76769047D01*
X153988333Y-76721428D01*
X153940714Y-76626190D01*
X153940714Y-76435714D01*
X153988333Y-76340476D01*
X154607380Y-75435714D02*
X154083571Y-75435714D01*
X153988333Y-75483333D01*
X153940714Y-75578571D01*
X153940714Y-75769047D01*
X153988333Y-75864285D01*
X154559761Y-75435714D02*
X154607380Y-75530952D01*
X154607380Y-75769047D01*
X154559761Y-75864285D01*
X154464523Y-75911904D01*
X154369285Y-75911904D01*
X154274047Y-75864285D01*
X154226428Y-75769047D01*
X154226428Y-75530952D01*
X154178809Y-75435714D01*
X154512142Y-74959523D02*
X154559761Y-74911904D01*
X154607380Y-74959523D01*
X154559761Y-75007142D01*
X154512142Y-74959523D01*
X154607380Y-74959523D01*
X154321666Y-73769047D02*
X154321666Y-73292857D01*
X154607380Y-73864285D02*
X153607380Y-73530952D01*
X154607380Y-73197619D01*
X154607380Y-72864285D02*
X153940714Y-72864285D01*
X153607380Y-72864285D02*
X153655000Y-72911904D01*
X153702619Y-72864285D01*
X153655000Y-72816666D01*
X153607380Y-72864285D01*
X153702619Y-72864285D01*
X154607380Y-72388095D02*
X153940714Y-72388095D01*
X154131190Y-72388095D02*
X154035952Y-72340476D01*
X153988333Y-72292857D01*
X153940714Y-72197619D01*
X153940714Y-72102380D01*
X154512142Y-70435714D02*
X154559761Y-70483333D01*
X154607380Y-70626190D01*
X154607380Y-70721428D01*
X154559761Y-70864285D01*
X154464523Y-70959523D01*
X154369285Y-71007142D01*
X154178809Y-71054761D01*
X154035952Y-71054761D01*
X153845476Y-71007142D01*
X153750238Y-70959523D01*
X153655000Y-70864285D01*
X153607380Y-70721428D01*
X153607380Y-70626190D01*
X153655000Y-70483333D01*
X153702619Y-70435714D01*
X154607380Y-69864285D02*
X154559761Y-69959523D01*
X154512142Y-70007142D01*
X154416904Y-70054761D01*
X154131190Y-70054761D01*
X154035952Y-70007142D01*
X153988333Y-69959523D01*
X153940714Y-69864285D01*
X153940714Y-69721428D01*
X153988333Y-69626190D01*
X154035952Y-69578571D01*
X154131190Y-69530952D01*
X154416904Y-69530952D01*
X154512142Y-69578571D01*
X154559761Y-69626190D01*
X154607380Y-69721428D01*
X154607380Y-69864285D01*
X154607380Y-69102380D02*
X153940714Y-69102380D01*
X154131190Y-69102380D02*
X154035952Y-69054761D01*
X153988333Y-69007142D01*
X153940714Y-68911904D01*
X153940714Y-68816666D01*
X154559761Y-68102380D02*
X154607380Y-68197619D01*
X154607380Y-68388095D01*
X154559761Y-68483333D01*
X154464523Y-68530952D01*
X154083571Y-68530952D01*
X153988333Y-68483333D01*
X153940714Y-68388095D01*
X153940714Y-68197619D01*
X153988333Y-68102380D01*
X154083571Y-68054761D01*
X154178809Y-68054761D01*
X154274047Y-68530952D01*
X160212857Y-137432380D02*
X160831904Y-137432380D01*
X160498571Y-137813333D01*
X160641428Y-137813333D01*
X160736666Y-137860952D01*
X160784285Y-137908571D01*
X160831904Y-138003809D01*
X160831904Y-138241904D01*
X160784285Y-138337142D01*
X160736666Y-138384761D01*
X160641428Y-138432380D01*
X160355714Y-138432380D01*
X160260476Y-138384761D01*
X160212857Y-138337142D01*
X162212857Y-137432380D02*
X162403333Y-137432380D01*
X162498571Y-137480000D01*
X162593809Y-137575238D01*
X162641428Y-137765714D01*
X162641428Y-138099047D01*
X162593809Y-138289523D01*
X162498571Y-138384761D01*
X162403333Y-138432380D01*
X162212857Y-138432380D01*
X162117619Y-138384761D01*
X162022380Y-138289523D01*
X161974761Y-138099047D01*
X161974761Y-137765714D01*
X162022380Y-137575238D01*
X162117619Y-137480000D01*
X162212857Y-137432380D01*
X163070000Y-138432380D02*
X163070000Y-137432380D01*
X163498571Y-138432380D02*
X163498571Y-137908571D01*
X163450952Y-137813333D01*
X163355714Y-137765714D01*
X163212857Y-137765714D01*
X163117619Y-137813333D01*
X163070000Y-137860952D01*
X163974761Y-138432380D02*
X163974761Y-137765714D01*
X163974761Y-137860952D02*
X164022380Y-137813333D01*
X164117619Y-137765714D01*
X164260476Y-137765714D01*
X164355714Y-137813333D01*
X164403333Y-137908571D01*
X164403333Y-138432380D01*
X164403333Y-137908571D02*
X164450952Y-137813333D01*
X164546190Y-137765714D01*
X164689047Y-137765714D01*
X164784285Y-137813333D01*
X164831904Y-137908571D01*
X164831904Y-138432380D01*
X160484285Y-125127619D02*
X160531904Y-125080000D01*
X160627142Y-125032380D01*
X160865238Y-125032380D01*
X160960476Y-125080000D01*
X161008095Y-125127619D01*
X161055714Y-125222857D01*
X161055714Y-125318095D01*
X161008095Y-125460952D01*
X160436666Y-126032380D01*
X161055714Y-126032380D01*
X161960476Y-125032380D02*
X161484285Y-125032380D01*
X161436666Y-125508571D01*
X161484285Y-125460952D01*
X161579523Y-125413333D01*
X161817619Y-125413333D01*
X161912857Y-125460952D01*
X161960476Y-125508571D01*
X162008095Y-125603809D01*
X162008095Y-125841904D01*
X161960476Y-125937142D01*
X161912857Y-125984761D01*
X161817619Y-126032380D01*
X161579523Y-126032380D01*
X161484285Y-125984761D01*
X161436666Y-125937142D01*
X163389047Y-125032380D02*
X163579523Y-125032380D01*
X163674761Y-125080000D01*
X163770000Y-125175238D01*
X163817619Y-125365714D01*
X163817619Y-125699047D01*
X163770000Y-125889523D01*
X163674761Y-125984761D01*
X163579523Y-126032380D01*
X163389047Y-126032380D01*
X163293809Y-125984761D01*
X163198571Y-125889523D01*
X163150952Y-125699047D01*
X163150952Y-125365714D01*
X163198571Y-125175238D01*
X163293809Y-125080000D01*
X163389047Y-125032380D01*
X164246190Y-126032380D02*
X164246190Y-125032380D01*
X164674761Y-126032380D02*
X164674761Y-125508571D01*
X164627142Y-125413333D01*
X164531904Y-125365714D01*
X164389047Y-125365714D01*
X164293809Y-125413333D01*
X164246190Y-125460952D01*
X165150952Y-126032380D02*
X165150952Y-125365714D01*
X165150952Y-125460952D02*
X165198571Y-125413333D01*
X165293809Y-125365714D01*
X165436666Y-125365714D01*
X165531904Y-125413333D01*
X165579523Y-125508571D01*
X165579523Y-126032380D01*
X165579523Y-125508571D02*
X165627142Y-125413333D01*
X165722380Y-125365714D01*
X165865238Y-125365714D01*
X165960476Y-125413333D01*
X166008095Y-125508571D01*
X166008095Y-126032380D01*
X87009523Y-88772142D02*
X87057142Y-88819761D01*
X87009523Y-88867380D01*
X86961904Y-88819761D01*
X87009523Y-88772142D01*
X87009523Y-88867380D01*
X87914285Y-87867380D02*
X87723809Y-87867380D01*
X87628571Y-87915000D01*
X87580952Y-87962619D01*
X87485714Y-88105476D01*
X87438095Y-88295952D01*
X87438095Y-88676904D01*
X87485714Y-88772142D01*
X87533333Y-88819761D01*
X87628571Y-88867380D01*
X87819047Y-88867380D01*
X87914285Y-88819761D01*
X87961904Y-88772142D01*
X88009523Y-88676904D01*
X88009523Y-88438809D01*
X87961904Y-88343571D01*
X87914285Y-88295952D01*
X87819047Y-88248333D01*
X87628571Y-88248333D01*
X87533333Y-88295952D01*
X87485714Y-88343571D01*
X87438095Y-88438809D01*
X88628571Y-87867380D02*
X88723809Y-87867380D01*
X88819047Y-87915000D01*
X88866666Y-87962619D01*
X88914285Y-88057857D01*
X88961904Y-88248333D01*
X88961904Y-88486428D01*
X88914285Y-88676904D01*
X88866666Y-88772142D01*
X88819047Y-88819761D01*
X88723809Y-88867380D01*
X88628571Y-88867380D01*
X88533333Y-88819761D01*
X88485714Y-88772142D01*
X88438095Y-88676904D01*
X88390476Y-88486428D01*
X88390476Y-88248333D01*
X88438095Y-88057857D01*
X88485714Y-87962619D01*
X88533333Y-87915000D01*
X88628571Y-87867380D01*
X90152380Y-88867380D02*
X90152380Y-88200714D01*
X90152380Y-88295952D02*
X90200000Y-88248333D01*
X90295238Y-88200714D01*
X90438095Y-88200714D01*
X90533333Y-88248333D01*
X90580952Y-88343571D01*
X90580952Y-88867380D01*
X90580952Y-88343571D02*
X90628571Y-88248333D01*
X90723809Y-88200714D01*
X90866666Y-88200714D01*
X90961904Y-88248333D01*
X91009523Y-88343571D01*
X91009523Y-88867380D01*
X91485714Y-88867380D02*
X91485714Y-87867380D01*
X91485714Y-88343571D02*
X92057142Y-88343571D01*
X92057142Y-88867380D02*
X92057142Y-87867380D01*
X93819047Y-88867380D02*
X93247619Y-88867380D01*
X93533333Y-88867380D02*
X93533333Y-87867380D01*
X93438095Y-88010238D01*
X93342857Y-88105476D01*
X93247619Y-88153095D01*
X94390476Y-88295952D02*
X94295238Y-88248333D01*
X94247619Y-88200714D01*
X94200000Y-88105476D01*
X94200000Y-88057857D01*
X94247619Y-87962619D01*
X94295238Y-87915000D01*
X94390476Y-87867380D01*
X94580952Y-87867380D01*
X94676190Y-87915000D01*
X94723809Y-87962619D01*
X94771428Y-88057857D01*
X94771428Y-88105476D01*
X94723809Y-88200714D01*
X94676190Y-88248333D01*
X94580952Y-88295952D01*
X94390476Y-88295952D01*
X94295238Y-88343571D01*
X94247619Y-88391190D01*
X94200000Y-88486428D01*
X94200000Y-88676904D01*
X94247619Y-88772142D01*
X94295238Y-88819761D01*
X94390476Y-88867380D01*
X94580952Y-88867380D01*
X94676190Y-88819761D01*
X94723809Y-88772142D01*
X94771428Y-88676904D01*
X94771428Y-88486428D01*
X94723809Y-88391190D01*
X94676190Y-88343571D01*
X94580952Y-88295952D01*
X95628571Y-88200714D02*
X95628571Y-89010238D01*
X95580952Y-89105476D01*
X95533333Y-89153095D01*
X95438095Y-89200714D01*
X95295238Y-89200714D01*
X95200000Y-89153095D01*
X95628571Y-88819761D02*
X95533333Y-88867380D01*
X95342857Y-88867380D01*
X95247619Y-88819761D01*
X95200000Y-88772142D01*
X95152380Y-88676904D01*
X95152380Y-88391190D01*
X95200000Y-88295952D01*
X95247619Y-88248333D01*
X95342857Y-88200714D01*
X95533333Y-88200714D01*
X95628571Y-88248333D01*
X96533333Y-88867380D02*
X96533333Y-88343571D01*
X96485714Y-88248333D01*
X96390476Y-88200714D01*
X96200000Y-88200714D01*
X96104761Y-88248333D01*
X96533333Y-88819761D02*
X96438095Y-88867380D01*
X96200000Y-88867380D01*
X96104761Y-88819761D01*
X96057142Y-88724523D01*
X96057142Y-88629285D01*
X96104761Y-88534047D01*
X96200000Y-88486428D01*
X96438095Y-88486428D01*
X96533333Y-88438809D01*
X97723809Y-88581666D02*
X98200000Y-88581666D01*
X97628571Y-88867380D02*
X97961904Y-87867380D01*
X98295238Y-88867380D01*
X98628571Y-88867380D02*
X98628571Y-88200714D01*
X98628571Y-87867380D02*
X98580952Y-87915000D01*
X98628571Y-87962619D01*
X98676190Y-87915000D01*
X98628571Y-87867380D01*
X98628571Y-87962619D01*
X99104761Y-88867380D02*
X99104761Y-88200714D01*
X99104761Y-88391190D02*
X99152380Y-88295952D01*
X99200000Y-88248333D01*
X99295238Y-88200714D01*
X99390476Y-88200714D01*
X101057142Y-88772142D02*
X101009523Y-88819761D01*
X100866666Y-88867380D01*
X100771428Y-88867380D01*
X100628571Y-88819761D01*
X100533333Y-88724523D01*
X100485714Y-88629285D01*
X100438095Y-88438809D01*
X100438095Y-88295952D01*
X100485714Y-88105476D01*
X100533333Y-88010238D01*
X100628571Y-87915000D01*
X100771428Y-87867380D01*
X100866666Y-87867380D01*
X101009523Y-87915000D01*
X101057142Y-87962619D01*
X101628571Y-88867380D02*
X101533333Y-88819761D01*
X101485714Y-88772142D01*
X101438095Y-88676904D01*
X101438095Y-88391190D01*
X101485714Y-88295952D01*
X101533333Y-88248333D01*
X101628571Y-88200714D01*
X101771428Y-88200714D01*
X101866666Y-88248333D01*
X101914285Y-88295952D01*
X101961904Y-88391190D01*
X101961904Y-88676904D01*
X101914285Y-88772142D01*
X101866666Y-88819761D01*
X101771428Y-88867380D01*
X101628571Y-88867380D01*
X102390476Y-88867380D02*
X102390476Y-88200714D01*
X102390476Y-88391190D02*
X102438095Y-88295952D01*
X102485714Y-88248333D01*
X102580952Y-88200714D01*
X102676190Y-88200714D01*
X103390476Y-88819761D02*
X103295238Y-88867380D01*
X103104761Y-88867380D01*
X103009523Y-88819761D01*
X102961904Y-88724523D01*
X102961904Y-88343571D01*
X103009523Y-88248333D01*
X103104761Y-88200714D01*
X103295238Y-88200714D01*
X103390476Y-88248333D01*
X103438095Y-88343571D01*
X103438095Y-88438809D01*
X102961904Y-88534047D01*
X90888095Y-81692380D02*
X90697619Y-81692380D01*
X90602380Y-81740000D01*
X90554761Y-81787619D01*
X90459523Y-81930476D01*
X90411904Y-82120952D01*
X90411904Y-82501904D01*
X90459523Y-82597142D01*
X90507142Y-82644761D01*
X90602380Y-82692380D01*
X90792857Y-82692380D01*
X90888095Y-82644761D01*
X90935714Y-82597142D01*
X90983333Y-82501904D01*
X90983333Y-82263809D01*
X90935714Y-82168571D01*
X90888095Y-82120952D01*
X90792857Y-82073333D01*
X90602380Y-82073333D01*
X90507142Y-82120952D01*
X90459523Y-82168571D01*
X90411904Y-82263809D01*
X91411904Y-82597142D02*
X91459523Y-82644761D01*
X91411904Y-82692380D01*
X91364285Y-82644761D01*
X91411904Y-82597142D01*
X91411904Y-82692380D01*
X92030952Y-82120952D02*
X91935714Y-82073333D01*
X91888095Y-82025714D01*
X91840476Y-81930476D01*
X91840476Y-81882857D01*
X91888095Y-81787619D01*
X91935714Y-81740000D01*
X92030952Y-81692380D01*
X92221428Y-81692380D01*
X92316666Y-81740000D01*
X92364285Y-81787619D01*
X92411904Y-81882857D01*
X92411904Y-81930476D01*
X92364285Y-82025714D01*
X92316666Y-82073333D01*
X92221428Y-82120952D01*
X92030952Y-82120952D01*
X91935714Y-82168571D01*
X91888095Y-82216190D01*
X91840476Y-82311428D01*
X91840476Y-82501904D01*
X91888095Y-82597142D01*
X91935714Y-82644761D01*
X92030952Y-82692380D01*
X92221428Y-82692380D01*
X92316666Y-82644761D01*
X92364285Y-82597142D01*
X92411904Y-82501904D01*
X92411904Y-82311428D01*
X92364285Y-82216190D01*
X92316666Y-82168571D01*
X92221428Y-82120952D01*
X94030952Y-82025714D02*
X94030952Y-82692380D01*
X93602380Y-82025714D02*
X93602380Y-82549523D01*
X93650000Y-82644761D01*
X93745238Y-82692380D01*
X93888095Y-82692380D01*
X93983333Y-82644761D01*
X94030952Y-82597142D01*
X94840476Y-82168571D02*
X94507142Y-82168571D01*
X94507142Y-82692380D02*
X94507142Y-81692380D01*
X94983333Y-81692380D01*
X96126190Y-82692380D02*
X96126190Y-81692380D01*
X96507142Y-81692380D01*
X96602380Y-81740000D01*
X96650000Y-81787619D01*
X96697619Y-81882857D01*
X96697619Y-82025714D01*
X96650000Y-82120952D01*
X96602380Y-82168571D01*
X96507142Y-82216190D01*
X96126190Y-82216190D01*
X97269047Y-82692380D02*
X97173809Y-82644761D01*
X97126190Y-82597142D01*
X97078571Y-82501904D01*
X97078571Y-82216190D01*
X97126190Y-82120952D01*
X97173809Y-82073333D01*
X97269047Y-82025714D01*
X97411904Y-82025714D01*
X97507142Y-82073333D01*
X97554761Y-82120952D01*
X97602380Y-82216190D01*
X97602380Y-82501904D01*
X97554761Y-82597142D01*
X97507142Y-82644761D01*
X97411904Y-82692380D01*
X97269047Y-82692380D01*
X98173809Y-82692380D02*
X98078571Y-82644761D01*
X98030952Y-82549523D01*
X98030952Y-81692380D01*
X98459523Y-82025714D02*
X98697619Y-82692380D01*
X98935714Y-82025714D02*
X98697619Y-82692380D01*
X98602380Y-82930476D01*
X98554761Y-82978095D01*
X98459523Y-83025714D01*
X93936666Y-138127619D02*
X93984285Y-138080000D01*
X94079523Y-138032380D01*
X94317619Y-138032380D01*
X94412857Y-138080000D01*
X94460476Y-138127619D01*
X94508095Y-138222857D01*
X94508095Y-138318095D01*
X94460476Y-138460952D01*
X93889047Y-139032380D01*
X94508095Y-139032380D01*
X95127142Y-138032380D02*
X95222380Y-138032380D01*
X95317619Y-138080000D01*
X95365238Y-138127619D01*
X95412857Y-138222857D01*
X95460476Y-138413333D01*
X95460476Y-138651428D01*
X95412857Y-138841904D01*
X95365238Y-138937142D01*
X95317619Y-138984761D01*
X95222380Y-139032380D01*
X95127142Y-139032380D01*
X95031904Y-138984761D01*
X94984285Y-138937142D01*
X94936666Y-138841904D01*
X94889047Y-138651428D01*
X94889047Y-138413333D01*
X94936666Y-138222857D01*
X94984285Y-138127619D01*
X95031904Y-138080000D01*
X95127142Y-138032380D01*
X95889047Y-138937142D02*
X95936666Y-138984761D01*
X95889047Y-139032380D01*
X95841428Y-138984761D01*
X95889047Y-138937142D01*
X95889047Y-139032380D01*
X96555714Y-138032380D02*
X96650952Y-138032380D01*
X96746190Y-138080000D01*
X96793809Y-138127619D01*
X96841428Y-138222857D01*
X96889047Y-138413333D01*
X96889047Y-138651428D01*
X96841428Y-138841904D01*
X96793809Y-138937142D01*
X96746190Y-138984761D01*
X96650952Y-139032380D01*
X96555714Y-139032380D01*
X96460476Y-138984761D01*
X96412857Y-138937142D01*
X96365238Y-138841904D01*
X96317619Y-138651428D01*
X96317619Y-138413333D01*
X96365238Y-138222857D01*
X96412857Y-138127619D01*
X96460476Y-138080000D01*
X96555714Y-138032380D01*
X97746190Y-138365714D02*
X97746190Y-139032380D01*
X97317619Y-138365714D02*
X97317619Y-138889523D01*
X97365238Y-138984761D01*
X97460476Y-139032380D01*
X97603333Y-139032380D01*
X97698571Y-138984761D01*
X97746190Y-138937142D01*
X98555714Y-138508571D02*
X98222380Y-138508571D01*
X98222380Y-139032380D02*
X98222380Y-138032380D01*
X98698571Y-138032380D01*
X99841428Y-139032380D02*
X99841428Y-138032380D01*
X100222380Y-138032380D01*
X100317619Y-138080000D01*
X100365238Y-138127619D01*
X100412857Y-138222857D01*
X100412857Y-138365714D01*
X100365238Y-138460952D01*
X100317619Y-138508571D01*
X100222380Y-138556190D01*
X99841428Y-138556190D01*
X100984285Y-139032380D02*
X100889047Y-138984761D01*
X100841428Y-138937142D01*
X100793809Y-138841904D01*
X100793809Y-138556190D01*
X100841428Y-138460952D01*
X100889047Y-138413333D01*
X100984285Y-138365714D01*
X101127142Y-138365714D01*
X101222380Y-138413333D01*
X101270000Y-138460952D01*
X101317619Y-138556190D01*
X101317619Y-138841904D01*
X101270000Y-138937142D01*
X101222380Y-138984761D01*
X101127142Y-139032380D01*
X100984285Y-139032380D01*
X101889047Y-139032380D02*
X101793809Y-138984761D01*
X101746190Y-138889523D01*
X101746190Y-138032380D01*
X102174761Y-138365714D02*
X102412857Y-139032380D01*
X102650952Y-138365714D02*
X102412857Y-139032380D01*
X102317619Y-139270476D01*
X102270000Y-139318095D01*
X102174761Y-139365714D01*
X66318095Y-41402380D02*
X66318095Y-40402380D01*
X66794285Y-40735714D02*
X66794285Y-41402380D01*
X66794285Y-40830952D02*
X66841904Y-40783333D01*
X66937142Y-40735714D01*
X67080000Y-40735714D01*
X67175238Y-40783333D01*
X67222857Y-40878571D01*
X67222857Y-41402380D01*
X67699047Y-40735714D02*
X67699047Y-41735714D01*
X67699047Y-40783333D02*
X67794285Y-40735714D01*
X67984761Y-40735714D01*
X68080000Y-40783333D01*
X68127619Y-40830952D01*
X68175238Y-40926190D01*
X68175238Y-41211904D01*
X68127619Y-41307142D01*
X68080000Y-41354761D01*
X67984761Y-41402380D01*
X67794285Y-41402380D01*
X67699047Y-41354761D01*
X69032380Y-40735714D02*
X69032380Y-41402380D01*
X68603809Y-40735714D02*
X68603809Y-41259523D01*
X68651428Y-41354761D01*
X68746666Y-41402380D01*
X68889523Y-41402380D01*
X68984761Y-41354761D01*
X69032380Y-41307142D01*
X69365714Y-40735714D02*
X69746666Y-40735714D01*
X69508571Y-40402380D02*
X69508571Y-41259523D01*
X69556190Y-41354761D01*
X69651428Y-41402380D01*
X69746666Y-41402380D01*
X70080000Y-41021428D02*
X70841904Y-41021428D01*
X70460952Y-41402380D02*
X70460952Y-40640476D01*
X73938095Y-41402380D02*
X73938095Y-40402380D01*
X74414285Y-40735714D02*
X74414285Y-41402380D01*
X74414285Y-40830952D02*
X74461904Y-40783333D01*
X74557142Y-40735714D01*
X74700000Y-40735714D01*
X74795238Y-40783333D01*
X74842857Y-40878571D01*
X74842857Y-41402380D01*
X75319047Y-40735714D02*
X75319047Y-41735714D01*
X75319047Y-40783333D02*
X75414285Y-40735714D01*
X75604761Y-40735714D01*
X75700000Y-40783333D01*
X75747619Y-40830952D01*
X75795238Y-40926190D01*
X75795238Y-41211904D01*
X75747619Y-41307142D01*
X75700000Y-41354761D01*
X75604761Y-41402380D01*
X75414285Y-41402380D01*
X75319047Y-41354761D01*
X76652380Y-40735714D02*
X76652380Y-41402380D01*
X76223809Y-40735714D02*
X76223809Y-41259523D01*
X76271428Y-41354761D01*
X76366666Y-41402380D01*
X76509523Y-41402380D01*
X76604761Y-41354761D01*
X76652380Y-41307142D01*
X76985714Y-40735714D02*
X77366666Y-40735714D01*
X77128571Y-40402380D02*
X77128571Y-41259523D01*
X77176190Y-41354761D01*
X77271428Y-41402380D01*
X77366666Y-41402380D01*
X77700000Y-41021428D02*
X78461904Y-41021428D01*
X144526190Y-40402380D02*
X144764285Y-41402380D01*
X144954761Y-40688095D01*
X145145238Y-41402380D01*
X145383333Y-40402380D01*
X146288095Y-41402380D02*
X145716666Y-41402380D01*
X146002380Y-41402380D02*
X146002380Y-40402380D01*
X145907142Y-40545238D01*
X145811904Y-40640476D01*
X145716666Y-40688095D01*
X146716666Y-41021428D02*
X147478571Y-41021428D01*
X147097619Y-41402380D02*
X147097619Y-40640476D01*
X90351191Y-40407381D02*
X90589286Y-41407381D01*
X90779762Y-40693096D01*
X90970239Y-41407381D01*
X91208334Y-40407381D01*
X92113096Y-41407381D02*
X91541667Y-41407381D01*
X91827381Y-41407381D02*
X91827381Y-40407381D01*
X91732143Y-40550239D01*
X91636905Y-40645477D01*
X91541667Y-40693096D01*
X92541667Y-41026429D02*
X93303572Y-41026429D01*
X136906190Y-40402380D02*
X137144285Y-41402380D01*
X137334761Y-40688095D01*
X137525238Y-41402380D01*
X137763333Y-40402380D01*
X138096666Y-40497619D02*
X138144285Y-40450000D01*
X138239523Y-40402380D01*
X138477619Y-40402380D01*
X138572857Y-40450000D01*
X138620476Y-40497619D01*
X138668095Y-40592857D01*
X138668095Y-40688095D01*
X138620476Y-40830952D01*
X138049047Y-41402380D01*
X138668095Y-41402380D01*
X139096666Y-41021428D02*
X139858571Y-41021428D01*
X139477619Y-41402380D02*
X139477619Y-40640476D01*
X97536190Y-40402380D02*
X97774285Y-41402380D01*
X97964761Y-40688095D01*
X98155238Y-41402380D01*
X98393333Y-40402380D01*
X98726666Y-40497619D02*
X98774285Y-40450000D01*
X98869523Y-40402380D01*
X99107619Y-40402380D01*
X99202857Y-40450000D01*
X99250476Y-40497619D01*
X99298095Y-40592857D01*
X99298095Y-40688095D01*
X99250476Y-40830952D01*
X98679047Y-41402380D01*
X99298095Y-41402380D01*
X99726666Y-41021428D02*
X100488571Y-41021428D01*
X121015238Y-40402380D02*
X121586666Y-40402380D01*
X121300952Y-41402380D02*
X121300952Y-40402380D01*
X121920000Y-41021428D02*
X122681904Y-41021428D01*
X122300952Y-41402380D02*
X122300952Y-40640476D01*
X113395238Y-40392380D02*
X113966666Y-40392380D01*
X113680952Y-41392380D02*
X113680952Y-40392380D01*
X114300000Y-41011428D02*
X115061904Y-41011428D01*
M02*
