M48
; DRILL file {KiCad (5.1.4)-1} date 12/15/2019 1:31:35 AM
; FORMAT={-:-/ absolute / metric / decimal}
; #@! TF.CreationDate,2019-12-15T01:31:35-05:00
; #@! TF.GenerationSoftware,Kicad,Pcbnew,(5.1.4)-1
; #@! TF.FileFunction,Plated,1,2,PTH
FMAT,2
METRIC
T1C1.200
T2C1.400
T3C2.500
%
G90
G05
T1
X68.27Y-124.46
X128.27Y-124.46
X68.7Y-96.52
X121.7Y-96.52
X146.05Y-52.15
X146.05Y-100.15
T2
X140.37Y-119.38
X192.37Y-119.38
X189.23Y-89.64
X189.23Y-109.74
X68.65Y-71.12
X120.65Y-71.12
X140.37Y-132.08
X192.37Y-132.08
T3
X68.58Y-44.45
X76.2Y-44.45
X146.05Y-44.45
X138.43Y-44.45
X91.875Y-44.455
X99.06Y-44.45
X121.92Y-44.45
X114.3Y-44.45
T0
M30
