G04 #@! TF.GenerationSoftware,KiCad,Pcbnew,(5.1.4)-1*
G04 #@! TF.CreationDate,2019-12-15T01:31:19-05:00*
G04 #@! TF.ProjectId,SolsticeXOver,536f6c73-7469-4636-9558-4f7665722e6b,rev?*
G04 #@! TF.SameCoordinates,Original*
G04 #@! TF.FileFunction,Soldermask,Bot*
G04 #@! TF.FilePolarity,Negative*
%FSLAX46Y46*%
G04 Gerber Fmt 4.6, Leading zero omitted, Abs format (unit mm)*
G04 Created by KiCad (PCBNEW (5.1.4)-1) date 2019-12-15 01:31:19*
%MOMM*%
%LPD*%
G04 APERTURE LIST*
%ADD10C,0.100000*%
G04 APERTURE END LIST*
D10*
G36*
X192793241Y-130684760D02*
G01*
X193057305Y-130794139D01*
X193294958Y-130952934D01*
X193497066Y-131155042D01*
X193655861Y-131392695D01*
X193765240Y-131656759D01*
X193821000Y-131937088D01*
X193821000Y-132222912D01*
X193765240Y-132503241D01*
X193655861Y-132767305D01*
X193497066Y-133004958D01*
X193294958Y-133207066D01*
X193057305Y-133365861D01*
X192793241Y-133475240D01*
X192512912Y-133531000D01*
X192227088Y-133531000D01*
X191946759Y-133475240D01*
X191682695Y-133365861D01*
X191445042Y-133207066D01*
X191242934Y-133004958D01*
X191084139Y-132767305D01*
X190974760Y-132503241D01*
X190919000Y-132222912D01*
X190919000Y-131937088D01*
X190974760Y-131656759D01*
X191084139Y-131392695D01*
X191242934Y-131155042D01*
X191445042Y-130952934D01*
X191682695Y-130794139D01*
X191946759Y-130684760D01*
X192227088Y-130629000D01*
X192512912Y-130629000D01*
X192793241Y-130684760D01*
X192793241Y-130684760D01*
G37*
G36*
X140793241Y-130684760D02*
G01*
X141057305Y-130794139D01*
X141294958Y-130952934D01*
X141497066Y-131155042D01*
X141655861Y-131392695D01*
X141765240Y-131656759D01*
X141821000Y-131937088D01*
X141821000Y-132222912D01*
X141765240Y-132503241D01*
X141655861Y-132767305D01*
X141497066Y-133004958D01*
X141294958Y-133207066D01*
X141057305Y-133365861D01*
X140793241Y-133475240D01*
X140512912Y-133531000D01*
X140227088Y-133531000D01*
X139946759Y-133475240D01*
X139682695Y-133365861D01*
X139445042Y-133207066D01*
X139242934Y-133004958D01*
X139084139Y-132767305D01*
X138974760Y-132503241D01*
X138919000Y-132222912D01*
X138919000Y-131937088D01*
X138974760Y-131656759D01*
X139084139Y-131392695D01*
X139242934Y-131155042D01*
X139445042Y-130952934D01*
X139682695Y-130794139D01*
X139946759Y-130684760D01*
X140227088Y-130629000D01*
X140512912Y-130629000D01*
X140793241Y-130684760D01*
X140793241Y-130684760D01*
G37*
G36*
X55244239Y-126351467D02*
G01*
X55558282Y-126413934D01*
X56149926Y-126659001D01*
X56682392Y-127014784D01*
X57135216Y-127467608D01*
X57490999Y-128000074D01*
X57736066Y-128591718D01*
X57861000Y-129219804D01*
X57861000Y-129860196D01*
X57736066Y-130488282D01*
X57490999Y-131079926D01*
X57135216Y-131612392D01*
X56682392Y-132065216D01*
X56149926Y-132420999D01*
X55558282Y-132666066D01*
X55244239Y-132728533D01*
X54930197Y-132791000D01*
X54289803Y-132791000D01*
X53975761Y-132728533D01*
X53661718Y-132666066D01*
X53070074Y-132420999D01*
X52537608Y-132065216D01*
X52084784Y-131612392D01*
X51729001Y-131079926D01*
X51483934Y-130488282D01*
X51359000Y-129860196D01*
X51359000Y-129219804D01*
X51483934Y-128591718D01*
X51729001Y-128000074D01*
X52084784Y-127467608D01*
X52537608Y-127014784D01*
X53070074Y-126659001D01*
X53661718Y-126413934D01*
X53975761Y-126351467D01*
X54289803Y-126289000D01*
X54930197Y-126289000D01*
X55244239Y-126351467D01*
X55244239Y-126351467D01*
G37*
G36*
X212724239Y-126351467D02*
G01*
X213038282Y-126413934D01*
X213629926Y-126659001D01*
X214162392Y-127014784D01*
X214615216Y-127467608D01*
X214970999Y-128000074D01*
X215216066Y-128591718D01*
X215341000Y-129219804D01*
X215341000Y-129860196D01*
X215216066Y-130488282D01*
X214970999Y-131079926D01*
X214615216Y-131612392D01*
X214162392Y-132065216D01*
X213629926Y-132420999D01*
X213038282Y-132666066D01*
X212724239Y-132728533D01*
X212410197Y-132791000D01*
X211769803Y-132791000D01*
X211455761Y-132728533D01*
X211141718Y-132666066D01*
X210550074Y-132420999D01*
X210017608Y-132065216D01*
X209564784Y-131612392D01*
X209209001Y-131079926D01*
X208963934Y-130488282D01*
X208839000Y-129860196D01*
X208839000Y-129219804D01*
X208963934Y-128591718D01*
X209209001Y-128000074D01*
X209564784Y-127467608D01*
X210017608Y-127014784D01*
X210550074Y-126659001D01*
X211141718Y-126413934D01*
X211455761Y-126351467D01*
X211769803Y-126289000D01*
X212410197Y-126289000D01*
X212724239Y-126351467D01*
X212724239Y-126351467D01*
G37*
G36*
X68515239Y-123227101D02*
G01*
X68751053Y-123298634D01*
X68968381Y-123414799D01*
X69158871Y-123571129D01*
X69315201Y-123761619D01*
X69431366Y-123978947D01*
X69502899Y-124214761D01*
X69527053Y-124460000D01*
X69502899Y-124705239D01*
X69431366Y-124941053D01*
X69315201Y-125158381D01*
X69158871Y-125348871D01*
X68968381Y-125505201D01*
X68751053Y-125621366D01*
X68515239Y-125692899D01*
X68331457Y-125711000D01*
X68208543Y-125711000D01*
X68024761Y-125692899D01*
X67788947Y-125621366D01*
X67571619Y-125505201D01*
X67381129Y-125348871D01*
X67224799Y-125158381D01*
X67108634Y-124941053D01*
X67037101Y-124705239D01*
X67012947Y-124460000D01*
X67037101Y-124214761D01*
X67108634Y-123978947D01*
X67224799Y-123761619D01*
X67381129Y-123571129D01*
X67571619Y-123414799D01*
X67788947Y-123298634D01*
X68024761Y-123227101D01*
X68208543Y-123209000D01*
X68331457Y-123209000D01*
X68515239Y-123227101D01*
X68515239Y-123227101D01*
G37*
G36*
X129521000Y-125711000D02*
G01*
X127019000Y-125711000D01*
X127019000Y-123209000D01*
X129521000Y-123209000D01*
X129521000Y-125711000D01*
X129521000Y-125711000D01*
G37*
G36*
X140793241Y-117984760D02*
G01*
X141057305Y-118094139D01*
X141294958Y-118252934D01*
X141497066Y-118455042D01*
X141655861Y-118692695D01*
X141765240Y-118956759D01*
X141821000Y-119237088D01*
X141821000Y-119522912D01*
X141765240Y-119803241D01*
X141655861Y-120067305D01*
X141497066Y-120304958D01*
X141294958Y-120507066D01*
X141057305Y-120665861D01*
X140793241Y-120775240D01*
X140512912Y-120831000D01*
X140227088Y-120831000D01*
X139946759Y-120775240D01*
X139682695Y-120665861D01*
X139445042Y-120507066D01*
X139242934Y-120304958D01*
X139084139Y-120067305D01*
X138974760Y-119803241D01*
X138919000Y-119522912D01*
X138919000Y-119237088D01*
X138974760Y-118956759D01*
X139084139Y-118692695D01*
X139242934Y-118455042D01*
X139445042Y-118252934D01*
X139682695Y-118094139D01*
X139946759Y-117984760D01*
X140227088Y-117929000D01*
X140512912Y-117929000D01*
X140793241Y-117984760D01*
X140793241Y-117984760D01*
G37*
G36*
X192793241Y-117984760D02*
G01*
X193057305Y-118094139D01*
X193294958Y-118252934D01*
X193497066Y-118455042D01*
X193655861Y-118692695D01*
X193765240Y-118956759D01*
X193821000Y-119237088D01*
X193821000Y-119522912D01*
X193765240Y-119803241D01*
X193655861Y-120067305D01*
X193497066Y-120304958D01*
X193294958Y-120507066D01*
X193057305Y-120665861D01*
X192793241Y-120775240D01*
X192512912Y-120831000D01*
X192227088Y-120831000D01*
X191946759Y-120775240D01*
X191682695Y-120665861D01*
X191445042Y-120507066D01*
X191242934Y-120304958D01*
X191084139Y-120067305D01*
X190974760Y-119803241D01*
X190919000Y-119522912D01*
X190919000Y-119237088D01*
X190974760Y-118956759D01*
X191084139Y-118692695D01*
X191242934Y-118455042D01*
X191445042Y-118252934D01*
X191682695Y-118094139D01*
X191946759Y-117984760D01*
X192227088Y-117929000D01*
X192512912Y-117929000D01*
X192793241Y-117984760D01*
X192793241Y-117984760D01*
G37*
G36*
X189407861Y-108299497D02*
G01*
X189514446Y-108309995D01*
X189787960Y-108392965D01*
X189787963Y-108392966D01*
X190040028Y-108527698D01*
X190040029Y-108527699D01*
X190040033Y-108527701D01*
X190260976Y-108709024D01*
X190442299Y-108929967D01*
X190442301Y-108929971D01*
X190442302Y-108929972D01*
X190577034Y-109182037D01*
X190577035Y-109182040D01*
X190660005Y-109455554D01*
X190688020Y-109740000D01*
X190660005Y-110024446D01*
X190577035Y-110297960D01*
X190577034Y-110297963D01*
X190442302Y-110550028D01*
X190442299Y-110550033D01*
X190260976Y-110770976D01*
X190040033Y-110952299D01*
X190040029Y-110952301D01*
X190040028Y-110952302D01*
X189787963Y-111087034D01*
X189787960Y-111087035D01*
X189514446Y-111170005D01*
X189407861Y-111180502D01*
X189301278Y-111191000D01*
X189158722Y-111191000D01*
X189052139Y-111180502D01*
X188945554Y-111170005D01*
X188672040Y-111087035D01*
X188672037Y-111087034D01*
X188419972Y-110952302D01*
X188419971Y-110952301D01*
X188419967Y-110952299D01*
X188199024Y-110770976D01*
X188017701Y-110550033D01*
X188017698Y-110550028D01*
X187882966Y-110297963D01*
X187882965Y-110297960D01*
X187799995Y-110024446D01*
X187771980Y-109740000D01*
X187799995Y-109455554D01*
X187882965Y-109182040D01*
X187882966Y-109182037D01*
X188017698Y-108929972D01*
X188017699Y-108929971D01*
X188017701Y-108929967D01*
X188199024Y-108709024D01*
X188419967Y-108527701D01*
X188419971Y-108527699D01*
X188419972Y-108527698D01*
X188672037Y-108392966D01*
X188672040Y-108392965D01*
X188945554Y-108309995D01*
X189052139Y-108299497D01*
X189158722Y-108289000D01*
X189301278Y-108289000D01*
X189407861Y-108299497D01*
X189407861Y-108299497D01*
G37*
G36*
X95629487Y-105428996D02*
G01*
X95866253Y-105527068D01*
X95866255Y-105527069D01*
X96079339Y-105669447D01*
X96260553Y-105850661D01*
X96402932Y-106063747D01*
X96501004Y-106300513D01*
X96551000Y-106551861D01*
X96551000Y-106808139D01*
X96501004Y-107059487D01*
X96402932Y-107296253D01*
X96402931Y-107296255D01*
X96260553Y-107509339D01*
X96079339Y-107690553D01*
X95866255Y-107832931D01*
X95866254Y-107832932D01*
X95866253Y-107832932D01*
X95629487Y-107931004D01*
X95378139Y-107981000D01*
X95121861Y-107981000D01*
X94870513Y-107931004D01*
X94633747Y-107832932D01*
X94633746Y-107832932D01*
X94633745Y-107832931D01*
X94420661Y-107690553D01*
X94239447Y-107509339D01*
X94097069Y-107296255D01*
X94097068Y-107296253D01*
X93998996Y-107059487D01*
X93949000Y-106808139D01*
X93949000Y-106551861D01*
X93998996Y-106300513D01*
X94097068Y-106063747D01*
X94239447Y-105850661D01*
X94420661Y-105669447D01*
X94633745Y-105527069D01*
X94633747Y-105527068D01*
X94870513Y-105428996D01*
X95121861Y-105379000D01*
X95378139Y-105379000D01*
X95629487Y-105428996D01*
X95629487Y-105428996D01*
G37*
G36*
X146295239Y-98917101D02*
G01*
X146531053Y-98988634D01*
X146748381Y-99104799D01*
X146938871Y-99261129D01*
X147095201Y-99451619D01*
X147211366Y-99668947D01*
X147282899Y-99904761D01*
X147307053Y-100150000D01*
X147282899Y-100395239D01*
X147211366Y-100631053D01*
X147095201Y-100848381D01*
X146938871Y-101038871D01*
X146748381Y-101195201D01*
X146531053Y-101311366D01*
X146295239Y-101382899D01*
X146111457Y-101401000D01*
X145988543Y-101401000D01*
X145804761Y-101382899D01*
X145568947Y-101311366D01*
X145351619Y-101195201D01*
X145161129Y-101038871D01*
X145004799Y-100848381D01*
X144888634Y-100631053D01*
X144817101Y-100395239D01*
X144792947Y-100150000D01*
X144817101Y-99904761D01*
X144888634Y-99668947D01*
X145004799Y-99451619D01*
X145161129Y-99261129D01*
X145351619Y-99104799D01*
X145568947Y-98988634D01*
X145804761Y-98917101D01*
X145988543Y-98899000D01*
X146111457Y-98899000D01*
X146295239Y-98917101D01*
X146295239Y-98917101D01*
G37*
G36*
X215009487Y-95268996D02*
G01*
X215225896Y-95358636D01*
X215246255Y-95367069D01*
X215459339Y-95509447D01*
X215640553Y-95690661D01*
X215757880Y-95866253D01*
X215782932Y-95903747D01*
X215881004Y-96140513D01*
X215931000Y-96391861D01*
X215931000Y-96648139D01*
X215881004Y-96899487D01*
X215792742Y-97112569D01*
X215782931Y-97136255D01*
X215640553Y-97349339D01*
X215459339Y-97530553D01*
X215246255Y-97672931D01*
X215246254Y-97672932D01*
X215246253Y-97672932D01*
X215009487Y-97771004D01*
X214758139Y-97821000D01*
X214501861Y-97821000D01*
X214250513Y-97771004D01*
X214013747Y-97672932D01*
X214013746Y-97672932D01*
X214013745Y-97672931D01*
X213800661Y-97530553D01*
X213619447Y-97349339D01*
X213477069Y-97136255D01*
X213467258Y-97112569D01*
X213378996Y-96899487D01*
X213329000Y-96648139D01*
X213329000Y-96391861D01*
X213378996Y-96140513D01*
X213477068Y-95903747D01*
X213502121Y-95866253D01*
X213619447Y-95690661D01*
X213800661Y-95509447D01*
X214013745Y-95367069D01*
X214034104Y-95358636D01*
X214250513Y-95268996D01*
X214501861Y-95219000D01*
X214758139Y-95219000D01*
X215009487Y-95268996D01*
X215009487Y-95268996D01*
G37*
G36*
X69064903Y-95317075D02*
G01*
X69185600Y-95367069D01*
X69292571Y-95411378D01*
X69497466Y-95548285D01*
X69671715Y-95722534D01*
X69792798Y-95903747D01*
X69808623Y-95927431D01*
X69902925Y-96155097D01*
X69923902Y-96260553D01*
X69951000Y-96396787D01*
X69951000Y-96643213D01*
X69902925Y-96884903D01*
X69808622Y-97112571D01*
X69671715Y-97317466D01*
X69497466Y-97491715D01*
X69292571Y-97628622D01*
X69292570Y-97628623D01*
X69292569Y-97628623D01*
X69064903Y-97722925D01*
X68823214Y-97771000D01*
X68576786Y-97771000D01*
X68335097Y-97722925D01*
X68107431Y-97628623D01*
X68107430Y-97628623D01*
X68107429Y-97628622D01*
X67902534Y-97491715D01*
X67728285Y-97317466D01*
X67591378Y-97112571D01*
X67497075Y-96884903D01*
X67449000Y-96643213D01*
X67449000Y-96396787D01*
X67476099Y-96260553D01*
X67497075Y-96155097D01*
X67591377Y-95927431D01*
X67607202Y-95903747D01*
X67728285Y-95722534D01*
X67902534Y-95548285D01*
X68107429Y-95411378D01*
X68214401Y-95367069D01*
X68335097Y-95317075D01*
X68576786Y-95269000D01*
X68823214Y-95269000D01*
X69064903Y-95317075D01*
X69064903Y-95317075D01*
G37*
G36*
X121945239Y-95287101D02*
G01*
X122181053Y-95358634D01*
X122398381Y-95474799D01*
X122588871Y-95631129D01*
X122745201Y-95821619D01*
X122861366Y-96038947D01*
X122932899Y-96274761D01*
X122957053Y-96520000D01*
X122932899Y-96765239D01*
X122861366Y-97001053D01*
X122745201Y-97218381D01*
X122588871Y-97408871D01*
X122398381Y-97565201D01*
X122181053Y-97681366D01*
X121945239Y-97752899D01*
X121761457Y-97771000D01*
X121638543Y-97771000D01*
X121454761Y-97752899D01*
X121218947Y-97681366D01*
X121001619Y-97565201D01*
X120811129Y-97408871D01*
X120654799Y-97218381D01*
X120538634Y-97001053D01*
X120467101Y-96765239D01*
X120442947Y-96520000D01*
X120467101Y-96274761D01*
X120538634Y-96038947D01*
X120654799Y-95821619D01*
X120811129Y-95631129D01*
X121001619Y-95474799D01*
X121218947Y-95358634D01*
X121454761Y-95287101D01*
X121638543Y-95269000D01*
X121761457Y-95269000D01*
X121945239Y-95287101D01*
X121945239Y-95287101D01*
G37*
G36*
X162939487Y-93998996D02*
G01*
X163176253Y-94097068D01*
X163176255Y-94097069D01*
X163389339Y-94239447D01*
X163570553Y-94420661D01*
X163712932Y-94633747D01*
X163811004Y-94870513D01*
X163861000Y-95121861D01*
X163861000Y-95378139D01*
X163811004Y-95629487D01*
X163712932Y-95866253D01*
X163712931Y-95866255D01*
X163570553Y-96079339D01*
X163389339Y-96260553D01*
X163176255Y-96402931D01*
X163176254Y-96402932D01*
X163176253Y-96402932D01*
X162939487Y-96501004D01*
X162688139Y-96551000D01*
X162431861Y-96551000D01*
X162180513Y-96501004D01*
X161943747Y-96402932D01*
X161943746Y-96402932D01*
X161943745Y-96402931D01*
X161730661Y-96260553D01*
X161549447Y-96079339D01*
X161407069Y-95866255D01*
X161407068Y-95866253D01*
X161308996Y-95629487D01*
X161259000Y-95378139D01*
X161259000Y-95121861D01*
X161308996Y-94870513D01*
X161407068Y-94633747D01*
X161549447Y-94420661D01*
X161730661Y-94239447D01*
X161943745Y-94097069D01*
X161943747Y-94097068D01*
X162180513Y-93998996D01*
X162431861Y-93949000D01*
X162688139Y-93949000D01*
X162939487Y-93998996D01*
X162939487Y-93998996D01*
G37*
G36*
X189653241Y-88244760D02*
G01*
X189917305Y-88354139D01*
X190154958Y-88512934D01*
X190357066Y-88715042D01*
X190515861Y-88952695D01*
X190625240Y-89216759D01*
X190681000Y-89497088D01*
X190681000Y-89782912D01*
X190625240Y-90063241D01*
X190515861Y-90327305D01*
X190357066Y-90564958D01*
X190154958Y-90767066D01*
X189917305Y-90925861D01*
X189653241Y-91035240D01*
X189372912Y-91091000D01*
X189087088Y-91091000D01*
X188806759Y-91035240D01*
X188542695Y-90925861D01*
X188305042Y-90767066D01*
X188102934Y-90564958D01*
X187944139Y-90327305D01*
X187834760Y-90063241D01*
X187779000Y-89782912D01*
X187779000Y-89497088D01*
X187834760Y-89216759D01*
X187944139Y-88952695D01*
X188102934Y-88715042D01*
X188305042Y-88512934D01*
X188542695Y-88354139D01*
X188806759Y-88244760D01*
X189087088Y-88189000D01*
X189372912Y-88189000D01*
X189653241Y-88244760D01*
X189653241Y-88244760D01*
G37*
G36*
X95629487Y-83838996D02*
G01*
X95866253Y-83937068D01*
X95866255Y-83937069D01*
X96079339Y-84079447D01*
X96260553Y-84260661D01*
X96377880Y-84436253D01*
X96402932Y-84473747D01*
X96501004Y-84710513D01*
X96551000Y-84961861D01*
X96551000Y-85218139D01*
X96501004Y-85469487D01*
X96402932Y-85706253D01*
X96402931Y-85706255D01*
X96260553Y-85919339D01*
X96079339Y-86100553D01*
X95866255Y-86242931D01*
X95866254Y-86242932D01*
X95866253Y-86242932D01*
X95629487Y-86341004D01*
X95378139Y-86391000D01*
X95121861Y-86391000D01*
X94870513Y-86341004D01*
X94633747Y-86242932D01*
X94633746Y-86242932D01*
X94633745Y-86242931D01*
X94420661Y-86100553D01*
X94239447Y-85919339D01*
X94097069Y-85706255D01*
X94097068Y-85706253D01*
X93998996Y-85469487D01*
X93949000Y-85218139D01*
X93949000Y-84961861D01*
X93998996Y-84710513D01*
X94097068Y-84473747D01*
X94122121Y-84436253D01*
X94239447Y-84260661D01*
X94420661Y-84079447D01*
X94633745Y-83937069D01*
X94633747Y-83937068D01*
X94870513Y-83838996D01*
X95121861Y-83789000D01*
X95378139Y-83789000D01*
X95629487Y-83838996D01*
X95629487Y-83838996D01*
G37*
G36*
X198499487Y-82568996D02*
G01*
X198736253Y-82667068D01*
X198736255Y-82667069D01*
X198949339Y-82809447D01*
X199130553Y-82990661D01*
X199272932Y-83203747D01*
X199371004Y-83440513D01*
X199421000Y-83691861D01*
X199421000Y-83948139D01*
X199371004Y-84199487D01*
X199272932Y-84436253D01*
X199272931Y-84436255D01*
X199130553Y-84649339D01*
X198949339Y-84830553D01*
X198736255Y-84972931D01*
X198736254Y-84972932D01*
X198736253Y-84972932D01*
X198499487Y-85071004D01*
X198248139Y-85121000D01*
X197991861Y-85121000D01*
X197740513Y-85071004D01*
X197503747Y-84972932D01*
X197503746Y-84972932D01*
X197503745Y-84972931D01*
X197290661Y-84830553D01*
X197109447Y-84649339D01*
X196967069Y-84436255D01*
X196967068Y-84436253D01*
X196868996Y-84199487D01*
X196819000Y-83948139D01*
X196819000Y-83691861D01*
X196868996Y-83440513D01*
X196967068Y-83203747D01*
X197109447Y-82990661D01*
X197290661Y-82809447D01*
X197503745Y-82667069D01*
X197503747Y-82667068D01*
X197740513Y-82568996D01*
X197991861Y-82519000D01*
X198248139Y-82519000D01*
X198499487Y-82568996D01*
X198499487Y-82568996D01*
G37*
G36*
X180719487Y-82568996D02*
G01*
X180956253Y-82667068D01*
X180956255Y-82667069D01*
X181169339Y-82809447D01*
X181350553Y-82990661D01*
X181492932Y-83203747D01*
X181591004Y-83440513D01*
X181641000Y-83691861D01*
X181641000Y-83948139D01*
X181591004Y-84199487D01*
X181492932Y-84436253D01*
X181492931Y-84436255D01*
X181350553Y-84649339D01*
X181169339Y-84830553D01*
X180956255Y-84972931D01*
X180956254Y-84972932D01*
X180956253Y-84972932D01*
X180719487Y-85071004D01*
X180468139Y-85121000D01*
X180211861Y-85121000D01*
X179960513Y-85071004D01*
X179723747Y-84972932D01*
X179723746Y-84972932D01*
X179723745Y-84972931D01*
X179510661Y-84830553D01*
X179329447Y-84649339D01*
X179187069Y-84436255D01*
X179187068Y-84436253D01*
X179088996Y-84199487D01*
X179039000Y-83948139D01*
X179039000Y-83691861D01*
X179088996Y-83440513D01*
X179187068Y-83203747D01*
X179329447Y-82990661D01*
X179510661Y-82809447D01*
X179723745Y-82667069D01*
X179723747Y-82667068D01*
X179960513Y-82568996D01*
X180211861Y-82519000D01*
X180468139Y-82519000D01*
X180719487Y-82568996D01*
X180719487Y-82568996D01*
G37*
G36*
X157859487Y-76218996D02*
G01*
X158096253Y-76317068D01*
X158096255Y-76317069D01*
X158309339Y-76459447D01*
X158490553Y-76640661D01*
X158632932Y-76853747D01*
X158731004Y-77090513D01*
X158781000Y-77341861D01*
X158781000Y-77598139D01*
X158731004Y-77849487D01*
X158632932Y-78086253D01*
X158632931Y-78086255D01*
X158490553Y-78299339D01*
X158309339Y-78480553D01*
X158096255Y-78622931D01*
X158096254Y-78622932D01*
X158096253Y-78622932D01*
X157859487Y-78721004D01*
X157608139Y-78771000D01*
X157351861Y-78771000D01*
X157100513Y-78721004D01*
X156863747Y-78622932D01*
X156863746Y-78622932D01*
X156863745Y-78622931D01*
X156650661Y-78480553D01*
X156469447Y-78299339D01*
X156327069Y-78086255D01*
X156327068Y-78086253D01*
X156228996Y-77849487D01*
X156179000Y-77598139D01*
X156179000Y-77341861D01*
X156228996Y-77090513D01*
X156327068Y-76853747D01*
X156469447Y-76640661D01*
X156650661Y-76459447D01*
X156863745Y-76317069D01*
X156863747Y-76317068D01*
X157100513Y-76218996D01*
X157351861Y-76169000D01*
X157608139Y-76169000D01*
X157859487Y-76218996D01*
X157859487Y-76218996D01*
G37*
G36*
X133729487Y-76218996D02*
G01*
X133966253Y-76317068D01*
X133966255Y-76317069D01*
X134179339Y-76459447D01*
X134360553Y-76640661D01*
X134502932Y-76853747D01*
X134601004Y-77090513D01*
X134651000Y-77341861D01*
X134651000Y-77598139D01*
X134601004Y-77849487D01*
X134502932Y-78086253D01*
X134502931Y-78086255D01*
X134360553Y-78299339D01*
X134179339Y-78480553D01*
X133966255Y-78622931D01*
X133966254Y-78622932D01*
X133966253Y-78622932D01*
X133729487Y-78721004D01*
X133478139Y-78771000D01*
X133221861Y-78771000D01*
X132970513Y-78721004D01*
X132733747Y-78622932D01*
X132733746Y-78622932D01*
X132733745Y-78622931D01*
X132520661Y-78480553D01*
X132339447Y-78299339D01*
X132197069Y-78086255D01*
X132197068Y-78086253D01*
X132098996Y-77849487D01*
X132049000Y-77598139D01*
X132049000Y-77341861D01*
X132098996Y-77090513D01*
X132197068Y-76853747D01*
X132339447Y-76640661D01*
X132520661Y-76459447D01*
X132733745Y-76317069D01*
X132733747Y-76317068D01*
X132970513Y-76218996D01*
X133221861Y-76169000D01*
X133478139Y-76169000D01*
X133729487Y-76218996D01*
X133729487Y-76218996D01*
G37*
G36*
X122101000Y-72571000D02*
G01*
X119199000Y-72571000D01*
X119199000Y-69669000D01*
X122101000Y-69669000D01*
X122101000Y-72571000D01*
X122101000Y-72571000D01*
G37*
G36*
X68827861Y-69679498D02*
G01*
X68934446Y-69689995D01*
X69207960Y-69772965D01*
X69207963Y-69772966D01*
X69460028Y-69907698D01*
X69460029Y-69907699D01*
X69460033Y-69907701D01*
X69680976Y-70089024D01*
X69862299Y-70309967D01*
X69862301Y-70309971D01*
X69862302Y-70309972D01*
X69997034Y-70562037D01*
X69997035Y-70562040D01*
X70080005Y-70835554D01*
X70108020Y-71120000D01*
X70080005Y-71404446D01*
X69997035Y-71677960D01*
X69997034Y-71677963D01*
X69862302Y-71930028D01*
X69862299Y-71930033D01*
X69680976Y-72150976D01*
X69460033Y-72332299D01*
X69460029Y-72332301D01*
X69460028Y-72332302D01*
X69207963Y-72467034D01*
X69207960Y-72467035D01*
X68934446Y-72550005D01*
X68827861Y-72560503D01*
X68721278Y-72571000D01*
X68578722Y-72571000D01*
X68472139Y-72560503D01*
X68365554Y-72550005D01*
X68092040Y-72467035D01*
X68092037Y-72467034D01*
X67839972Y-72332302D01*
X67839971Y-72332301D01*
X67839967Y-72332299D01*
X67619024Y-72150976D01*
X67437701Y-71930033D01*
X67437698Y-71930028D01*
X67302966Y-71677963D01*
X67302965Y-71677960D01*
X67219995Y-71404446D01*
X67191980Y-71120000D01*
X67219995Y-70835554D01*
X67302965Y-70562040D01*
X67302966Y-70562037D01*
X67437698Y-70309972D01*
X67437699Y-70309971D01*
X67437701Y-70309967D01*
X67619024Y-70089024D01*
X67839967Y-69907701D01*
X67839971Y-69907699D01*
X67839972Y-69907698D01*
X68092037Y-69772966D01*
X68092040Y-69772965D01*
X68365554Y-69689995D01*
X68472139Y-69679498D01*
X68578722Y-69669000D01*
X68721278Y-69669000D01*
X68827861Y-69679498D01*
X68827861Y-69679498D01*
G37*
G36*
X189609487Y-68598996D02*
G01*
X189846253Y-68697068D01*
X189846255Y-68697069D01*
X190059339Y-68839447D01*
X190240553Y-69020661D01*
X190382932Y-69233747D01*
X190481004Y-69470513D01*
X190531000Y-69721861D01*
X190531000Y-69978139D01*
X190481004Y-70229487D01*
X190382932Y-70466253D01*
X190382931Y-70466255D01*
X190240553Y-70679339D01*
X190059339Y-70860553D01*
X189846255Y-71002931D01*
X189846254Y-71002932D01*
X189846253Y-71002932D01*
X189609487Y-71101004D01*
X189358139Y-71151000D01*
X189101861Y-71151000D01*
X188850513Y-71101004D01*
X188613747Y-71002932D01*
X188613746Y-71002932D01*
X188613745Y-71002931D01*
X188400661Y-70860553D01*
X188219447Y-70679339D01*
X188077069Y-70466255D01*
X188077068Y-70466253D01*
X187978996Y-70229487D01*
X187929000Y-69978139D01*
X187929000Y-69721861D01*
X187978996Y-69470513D01*
X188077068Y-69233747D01*
X188219447Y-69020661D01*
X188400661Y-68839447D01*
X188613745Y-68697069D01*
X188613747Y-68697068D01*
X188850513Y-68598996D01*
X189101861Y-68549000D01*
X189358139Y-68549000D01*
X189609487Y-68598996D01*
X189609487Y-68598996D01*
G37*
G36*
X146414903Y-50947075D02*
G01*
X146642571Y-51041378D01*
X146847466Y-51178285D01*
X147021715Y-51352534D01*
X147158622Y-51557429D01*
X147252925Y-51785097D01*
X147301000Y-52026787D01*
X147301000Y-52273213D01*
X147252925Y-52514903D01*
X147158622Y-52742571D01*
X147021715Y-52947466D01*
X146847466Y-53121715D01*
X146642571Y-53258622D01*
X146642570Y-53258623D01*
X146642569Y-53258623D01*
X146414903Y-53352925D01*
X146173214Y-53401000D01*
X145926786Y-53401000D01*
X145685097Y-53352925D01*
X145457431Y-53258623D01*
X145457430Y-53258623D01*
X145457429Y-53258622D01*
X145252534Y-53121715D01*
X145078285Y-52947466D01*
X144941378Y-52742571D01*
X144847075Y-52514903D01*
X144799000Y-52273213D01*
X144799000Y-52026787D01*
X144847075Y-51785097D01*
X144941378Y-51557429D01*
X145078285Y-51352534D01*
X145252534Y-51178285D01*
X145457429Y-51041378D01*
X145685097Y-50947075D01*
X145926786Y-50899000D01*
X146173214Y-50899000D01*
X146414903Y-50947075D01*
X146414903Y-50947075D01*
G37*
G36*
X189609487Y-44468996D02*
G01*
X189846253Y-44567068D01*
X189846255Y-44567069D01*
X190047074Y-44701252D01*
X190059339Y-44709447D01*
X190240553Y-44890661D01*
X190382932Y-45103747D01*
X190481004Y-45340513D01*
X190531000Y-45591861D01*
X190531000Y-45848139D01*
X190481004Y-46099487D01*
X190382932Y-46336253D01*
X190382931Y-46336255D01*
X190240553Y-46549339D01*
X190059339Y-46730553D01*
X189846255Y-46872931D01*
X189846254Y-46872932D01*
X189846253Y-46872932D01*
X189609487Y-46971004D01*
X189358139Y-47021000D01*
X189101861Y-47021000D01*
X188850513Y-46971004D01*
X188613747Y-46872932D01*
X188613746Y-46872932D01*
X188613745Y-46872931D01*
X188400661Y-46730553D01*
X188219447Y-46549339D01*
X188077069Y-46336255D01*
X188077068Y-46336253D01*
X187978996Y-46099487D01*
X187929000Y-45848139D01*
X187929000Y-45591861D01*
X187978996Y-45340513D01*
X188077068Y-45103747D01*
X188219447Y-44890661D01*
X188400661Y-44709447D01*
X188412926Y-44701252D01*
X188613745Y-44567069D01*
X188613747Y-44567068D01*
X188850513Y-44468996D01*
X189101861Y-44419000D01*
X189358139Y-44419000D01*
X189609487Y-44468996D01*
X189609487Y-44468996D01*
G37*
G36*
X92619099Y-42002034D02*
G01*
X93083351Y-42194333D01*
X93083353Y-42194334D01*
X93501169Y-42473510D01*
X93856492Y-42828833D01*
X94135668Y-43246649D01*
X94135669Y-43246651D01*
X94327968Y-43710903D01*
X94426001Y-44203748D01*
X94426001Y-44706254D01*
X94327968Y-45199099D01*
X94135669Y-45663351D01*
X94135668Y-45663353D01*
X93856492Y-46081169D01*
X93501169Y-46436492D01*
X93083353Y-46715668D01*
X93083352Y-46715669D01*
X93083351Y-46715669D01*
X92619099Y-46907968D01*
X92126254Y-47006001D01*
X91623748Y-47006001D01*
X91130903Y-46907968D01*
X90666651Y-46715669D01*
X90666650Y-46715669D01*
X90666649Y-46715668D01*
X90248833Y-46436492D01*
X89893510Y-46081169D01*
X89614334Y-45663353D01*
X89614333Y-45663351D01*
X89422034Y-45199099D01*
X89324001Y-44706254D01*
X89324001Y-44203748D01*
X89422034Y-43710903D01*
X89614333Y-43246651D01*
X89614334Y-43246649D01*
X89893510Y-42828833D01*
X90248833Y-42473510D01*
X90666649Y-42194334D01*
X90666651Y-42194333D01*
X91130903Y-42002034D01*
X91623748Y-41904001D01*
X92126254Y-41904001D01*
X92619099Y-42002034D01*
X92619099Y-42002034D01*
G37*
G36*
X115044098Y-41997033D02*
G01*
X115508350Y-42189332D01*
X115508352Y-42189333D01*
X115926168Y-42468509D01*
X116281491Y-42823832D01*
X116560667Y-43241648D01*
X116560668Y-43241650D01*
X116752967Y-43705902D01*
X116851000Y-44198747D01*
X116851000Y-44701253D01*
X116752967Y-45194098D01*
X116588208Y-45591863D01*
X116560667Y-45658352D01*
X116281491Y-46076168D01*
X115926168Y-46431491D01*
X115508352Y-46710667D01*
X115508351Y-46710668D01*
X115508350Y-46710668D01*
X115044098Y-46902967D01*
X114551253Y-47001000D01*
X114048747Y-47001000D01*
X113555902Y-46902967D01*
X113091650Y-46710668D01*
X113091649Y-46710668D01*
X113091648Y-46710667D01*
X112673832Y-46431491D01*
X112318509Y-46076168D01*
X112039333Y-45658352D01*
X112011792Y-45591863D01*
X111847033Y-45194098D01*
X111749000Y-44701253D01*
X111749000Y-44198747D01*
X111847033Y-43705902D01*
X112039332Y-43241650D01*
X112039333Y-43241648D01*
X112318509Y-42823832D01*
X112673832Y-42468509D01*
X113091648Y-42189333D01*
X113091650Y-42189332D01*
X113555902Y-41997033D01*
X114048747Y-41899000D01*
X114551253Y-41899000D01*
X115044098Y-41997033D01*
X115044098Y-41997033D01*
G37*
G36*
X76944098Y-41997033D02*
G01*
X77408350Y-42189332D01*
X77408352Y-42189333D01*
X77826168Y-42468509D01*
X78181491Y-42823832D01*
X78460667Y-43241648D01*
X78460668Y-43241650D01*
X78652967Y-43705902D01*
X78751000Y-44198747D01*
X78751000Y-44701253D01*
X78652967Y-45194098D01*
X78488208Y-45591863D01*
X78460667Y-45658352D01*
X78181491Y-46076168D01*
X77826168Y-46431491D01*
X77408352Y-46710667D01*
X77408351Y-46710668D01*
X77408350Y-46710668D01*
X76944098Y-46902967D01*
X76451253Y-47001000D01*
X75948747Y-47001000D01*
X75455902Y-46902967D01*
X74991650Y-46710668D01*
X74991649Y-46710668D01*
X74991648Y-46710667D01*
X74573832Y-46431491D01*
X74218509Y-46076168D01*
X73939333Y-45658352D01*
X73911792Y-45591863D01*
X73747033Y-45194098D01*
X73649000Y-44701253D01*
X73649000Y-44198747D01*
X73747033Y-43705902D01*
X73939332Y-43241650D01*
X73939333Y-43241648D01*
X74218509Y-42823832D01*
X74573832Y-42468509D01*
X74991648Y-42189333D01*
X74991650Y-42189332D01*
X75455902Y-41997033D01*
X75948747Y-41899000D01*
X76451253Y-41899000D01*
X76944098Y-41997033D01*
X76944098Y-41997033D01*
G37*
G36*
X146794098Y-41997033D02*
G01*
X147258350Y-42189332D01*
X147258352Y-42189333D01*
X147676168Y-42468509D01*
X148031491Y-42823832D01*
X148310667Y-43241648D01*
X148310668Y-43241650D01*
X148502967Y-43705902D01*
X148601000Y-44198747D01*
X148601000Y-44701253D01*
X148502967Y-45194098D01*
X148338208Y-45591863D01*
X148310667Y-45658352D01*
X148031491Y-46076168D01*
X147676168Y-46431491D01*
X147258352Y-46710667D01*
X147258351Y-46710668D01*
X147258350Y-46710668D01*
X146794098Y-46902967D01*
X146301253Y-47001000D01*
X145798747Y-47001000D01*
X145305902Y-46902967D01*
X144841650Y-46710668D01*
X144841649Y-46710668D01*
X144841648Y-46710667D01*
X144423832Y-46431491D01*
X144068509Y-46076168D01*
X143789333Y-45658352D01*
X143761792Y-45591863D01*
X143597033Y-45194098D01*
X143499000Y-44701253D01*
X143499000Y-44198747D01*
X143597033Y-43705902D01*
X143789332Y-43241650D01*
X143789333Y-43241648D01*
X144068509Y-42823832D01*
X144423832Y-42468509D01*
X144841648Y-42189333D01*
X144841650Y-42189332D01*
X145305902Y-41997033D01*
X145798747Y-41899000D01*
X146301253Y-41899000D01*
X146794098Y-41997033D01*
X146794098Y-41997033D01*
G37*
G36*
X139174098Y-41997033D02*
G01*
X139638350Y-42189332D01*
X139638352Y-42189333D01*
X140056168Y-42468509D01*
X140411491Y-42823832D01*
X140690667Y-43241648D01*
X140690668Y-43241650D01*
X140882967Y-43705902D01*
X140981000Y-44198747D01*
X140981000Y-44701253D01*
X140882967Y-45194098D01*
X140718208Y-45591863D01*
X140690667Y-45658352D01*
X140411491Y-46076168D01*
X140056168Y-46431491D01*
X139638352Y-46710667D01*
X139638351Y-46710668D01*
X139638350Y-46710668D01*
X139174098Y-46902967D01*
X138681253Y-47001000D01*
X138178747Y-47001000D01*
X137685902Y-46902967D01*
X137221650Y-46710668D01*
X137221649Y-46710668D01*
X137221648Y-46710667D01*
X136803832Y-46431491D01*
X136448509Y-46076168D01*
X136169333Y-45658352D01*
X136141792Y-45591863D01*
X135977033Y-45194098D01*
X135879000Y-44701253D01*
X135879000Y-44198747D01*
X135977033Y-43705902D01*
X136169332Y-43241650D01*
X136169333Y-43241648D01*
X136448509Y-42823832D01*
X136803832Y-42468509D01*
X137221648Y-42189333D01*
X137221650Y-42189332D01*
X137685902Y-41997033D01*
X138178747Y-41899000D01*
X138681253Y-41899000D01*
X139174098Y-41997033D01*
X139174098Y-41997033D01*
G37*
G36*
X99804098Y-41997033D02*
G01*
X100268350Y-42189332D01*
X100268352Y-42189333D01*
X100686168Y-42468509D01*
X101041491Y-42823832D01*
X101320667Y-43241648D01*
X101320668Y-43241650D01*
X101512967Y-43705902D01*
X101611000Y-44198747D01*
X101611000Y-44701253D01*
X101512967Y-45194098D01*
X101348208Y-45591863D01*
X101320667Y-45658352D01*
X101041491Y-46076168D01*
X100686168Y-46431491D01*
X100268352Y-46710667D01*
X100268351Y-46710668D01*
X100268350Y-46710668D01*
X99804098Y-46902967D01*
X99311253Y-47001000D01*
X98808747Y-47001000D01*
X98315902Y-46902967D01*
X97851650Y-46710668D01*
X97851649Y-46710668D01*
X97851648Y-46710667D01*
X97433832Y-46431491D01*
X97078509Y-46076168D01*
X96799333Y-45658352D01*
X96771792Y-45591863D01*
X96607033Y-45194098D01*
X96509000Y-44701253D01*
X96509000Y-44198747D01*
X96607033Y-43705902D01*
X96799332Y-43241650D01*
X96799333Y-43241648D01*
X97078509Y-42823832D01*
X97433832Y-42468509D01*
X97851648Y-42189333D01*
X97851650Y-42189332D01*
X98315902Y-41997033D01*
X98808747Y-41899000D01*
X99311253Y-41899000D01*
X99804098Y-41997033D01*
X99804098Y-41997033D01*
G37*
G36*
X122664098Y-41997033D02*
G01*
X123128350Y-42189332D01*
X123128352Y-42189333D01*
X123546168Y-42468509D01*
X123901491Y-42823832D01*
X124180667Y-43241648D01*
X124180668Y-43241650D01*
X124372967Y-43705902D01*
X124471000Y-44198747D01*
X124471000Y-44701253D01*
X124372967Y-45194098D01*
X124208208Y-45591863D01*
X124180667Y-45658352D01*
X123901491Y-46076168D01*
X123546168Y-46431491D01*
X123128352Y-46710667D01*
X123128351Y-46710668D01*
X123128350Y-46710668D01*
X122664098Y-46902967D01*
X122171253Y-47001000D01*
X121668747Y-47001000D01*
X121175902Y-46902967D01*
X120711650Y-46710668D01*
X120711649Y-46710668D01*
X120711648Y-46710667D01*
X120293832Y-46431491D01*
X119938509Y-46076168D01*
X119659333Y-45658352D01*
X119631792Y-45591863D01*
X119467033Y-45194098D01*
X119369000Y-44701253D01*
X119369000Y-44198747D01*
X119467033Y-43705902D01*
X119659332Y-43241650D01*
X119659333Y-43241648D01*
X119938509Y-42823832D01*
X120293832Y-42468509D01*
X120711648Y-42189333D01*
X120711650Y-42189332D01*
X121175902Y-41997033D01*
X121668747Y-41899000D01*
X122171253Y-41899000D01*
X122664098Y-41997033D01*
X122664098Y-41997033D01*
G37*
G36*
X69324098Y-41997033D02*
G01*
X69788350Y-42189332D01*
X69788352Y-42189333D01*
X70206168Y-42468509D01*
X70561491Y-42823832D01*
X70840667Y-43241648D01*
X70840668Y-43241650D01*
X71032967Y-43705902D01*
X71131000Y-44198747D01*
X71131000Y-44701253D01*
X71032967Y-45194098D01*
X70868208Y-45591863D01*
X70840667Y-45658352D01*
X70561491Y-46076168D01*
X70206168Y-46431491D01*
X69788352Y-46710667D01*
X69788351Y-46710668D01*
X69788350Y-46710668D01*
X69324098Y-46902967D01*
X68831253Y-47001000D01*
X68328747Y-47001000D01*
X67835902Y-46902967D01*
X67371650Y-46710668D01*
X67371649Y-46710668D01*
X67371648Y-46710667D01*
X66953832Y-46431491D01*
X66598509Y-46076168D01*
X66319333Y-45658352D01*
X66291792Y-45591863D01*
X66127033Y-45194098D01*
X66029000Y-44701253D01*
X66029000Y-44198747D01*
X66127033Y-43705902D01*
X66319332Y-43241650D01*
X66319333Y-43241648D01*
X66598509Y-42823832D01*
X66953832Y-42468509D01*
X67371648Y-42189333D01*
X67371650Y-42189332D01*
X67835902Y-41997033D01*
X68328747Y-41899000D01*
X68831253Y-41899000D01*
X69324098Y-41997033D01*
X69324098Y-41997033D01*
G37*
G36*
X212724239Y-38721467D02*
G01*
X213038282Y-38783934D01*
X213629926Y-39029001D01*
X214056477Y-39314014D01*
X214111836Y-39351003D01*
X214162392Y-39384784D01*
X214615216Y-39837608D01*
X214970999Y-40370074D01*
X215216066Y-40961718D01*
X215341000Y-41589804D01*
X215341000Y-42230196D01*
X215216066Y-42858282D01*
X214970999Y-43449926D01*
X214796620Y-43710902D01*
X214615217Y-43982391D01*
X214162391Y-44435217D01*
X214056477Y-44505986D01*
X213629926Y-44790999D01*
X213038282Y-45036066D01*
X212724239Y-45098533D01*
X212410197Y-45161000D01*
X211769803Y-45161000D01*
X211455761Y-45098533D01*
X211141718Y-45036066D01*
X210550074Y-44790999D01*
X210123523Y-44505986D01*
X210017609Y-44435217D01*
X209564783Y-43982391D01*
X209383380Y-43710902D01*
X209209001Y-43449926D01*
X208963934Y-42858282D01*
X208839000Y-42230196D01*
X208839000Y-41589804D01*
X208963934Y-40961718D01*
X209209001Y-40370074D01*
X209564784Y-39837608D01*
X210017608Y-39384784D01*
X210068165Y-39351003D01*
X210123523Y-39314014D01*
X210550074Y-39029001D01*
X211141718Y-38783934D01*
X211455761Y-38721467D01*
X211769803Y-38659000D01*
X212410197Y-38659000D01*
X212724239Y-38721467D01*
X212724239Y-38721467D01*
G37*
G36*
X55244239Y-38721467D02*
G01*
X55558282Y-38783934D01*
X56149926Y-39029001D01*
X56576477Y-39314014D01*
X56631836Y-39351003D01*
X56682392Y-39384784D01*
X57135216Y-39837608D01*
X57490999Y-40370074D01*
X57736066Y-40961718D01*
X57861000Y-41589804D01*
X57861000Y-42230196D01*
X57736066Y-42858282D01*
X57490999Y-43449926D01*
X57316620Y-43710902D01*
X57135217Y-43982391D01*
X56682391Y-44435217D01*
X56576477Y-44505986D01*
X56149926Y-44790999D01*
X55558282Y-45036066D01*
X55244239Y-45098533D01*
X54930197Y-45161000D01*
X54289803Y-45161000D01*
X53975761Y-45098533D01*
X53661718Y-45036066D01*
X53070074Y-44790999D01*
X52643523Y-44505986D01*
X52537609Y-44435217D01*
X52084783Y-43982391D01*
X51903380Y-43710902D01*
X51729001Y-43449926D01*
X51483934Y-42858282D01*
X51359000Y-42230196D01*
X51359000Y-41589804D01*
X51483934Y-40961718D01*
X51729001Y-40370074D01*
X52084784Y-39837608D01*
X52537608Y-39384784D01*
X52588165Y-39351003D01*
X52643523Y-39314014D01*
X53070074Y-39029001D01*
X53661718Y-38783934D01*
X53975761Y-38721467D01*
X54289803Y-38659000D01*
X54930197Y-38659000D01*
X55244239Y-38721467D01*
X55244239Y-38721467D01*
G37*
G36*
X89279487Y-36848996D02*
G01*
X89516253Y-36947068D01*
X89516255Y-36947069D01*
X89729339Y-37089447D01*
X89910553Y-37270661D01*
X90052932Y-37483747D01*
X90151004Y-37720513D01*
X90201000Y-37971861D01*
X90201000Y-38228139D01*
X90151004Y-38479487D01*
X90076647Y-38659000D01*
X90052931Y-38716255D01*
X89910553Y-38929339D01*
X89729339Y-39110553D01*
X89516255Y-39252931D01*
X89516254Y-39252932D01*
X89516253Y-39252932D01*
X89279487Y-39351004D01*
X89028139Y-39401000D01*
X88771861Y-39401000D01*
X88520513Y-39351004D01*
X88283747Y-39252932D01*
X88283746Y-39252932D01*
X88283745Y-39252931D01*
X88070661Y-39110553D01*
X87889447Y-38929339D01*
X87747069Y-38716255D01*
X87723353Y-38659000D01*
X87648996Y-38479487D01*
X87599000Y-38228139D01*
X87599000Y-37971861D01*
X87648996Y-37720513D01*
X87747068Y-37483747D01*
X87889447Y-37270661D01*
X88070661Y-37089447D01*
X88283745Y-36947069D01*
X88283747Y-36947068D01*
X88520513Y-36848996D01*
X88771861Y-36799000D01*
X89028139Y-36799000D01*
X89279487Y-36848996D01*
X89279487Y-36848996D01*
G37*
G36*
X150239487Y-36848996D02*
G01*
X150476253Y-36947068D01*
X150476255Y-36947069D01*
X150689339Y-37089447D01*
X150870553Y-37270661D01*
X151012932Y-37483747D01*
X151111004Y-37720513D01*
X151161000Y-37971861D01*
X151161000Y-38228139D01*
X151111004Y-38479487D01*
X151036647Y-38659000D01*
X151012931Y-38716255D01*
X150870553Y-38929339D01*
X150689339Y-39110553D01*
X150476255Y-39252931D01*
X150476254Y-39252932D01*
X150476253Y-39252932D01*
X150239487Y-39351004D01*
X149988139Y-39401000D01*
X149731861Y-39401000D01*
X149480513Y-39351004D01*
X149243747Y-39252932D01*
X149243746Y-39252932D01*
X149243745Y-39252931D01*
X149030661Y-39110553D01*
X148849447Y-38929339D01*
X148707069Y-38716255D01*
X148683353Y-38659000D01*
X148608996Y-38479487D01*
X148559000Y-38228139D01*
X148559000Y-37971861D01*
X148608996Y-37720513D01*
X148707068Y-37483747D01*
X148849447Y-37270661D01*
X149030661Y-37089447D01*
X149243745Y-36947069D01*
X149243747Y-36947068D01*
X149480513Y-36848996D01*
X149731861Y-36799000D01*
X149988139Y-36799000D01*
X150239487Y-36848996D01*
X150239487Y-36848996D01*
G37*
G36*
X134999487Y-36848996D02*
G01*
X135236253Y-36947068D01*
X135236255Y-36947069D01*
X135449339Y-37089447D01*
X135630553Y-37270661D01*
X135772932Y-37483747D01*
X135871004Y-37720513D01*
X135921000Y-37971861D01*
X135921000Y-38228139D01*
X135871004Y-38479487D01*
X135796647Y-38659000D01*
X135772931Y-38716255D01*
X135630553Y-38929339D01*
X135449339Y-39110553D01*
X135236255Y-39252931D01*
X135236254Y-39252932D01*
X135236253Y-39252932D01*
X134999487Y-39351004D01*
X134748139Y-39401000D01*
X134491861Y-39401000D01*
X134240513Y-39351004D01*
X134003747Y-39252932D01*
X134003746Y-39252932D01*
X134003745Y-39252931D01*
X133790661Y-39110553D01*
X133609447Y-38929339D01*
X133467069Y-38716255D01*
X133443353Y-38659000D01*
X133368996Y-38479487D01*
X133319000Y-38228139D01*
X133319000Y-37971861D01*
X133368996Y-37720513D01*
X133467068Y-37483747D01*
X133609447Y-37270661D01*
X133790661Y-37089447D01*
X134003745Y-36947069D01*
X134003747Y-36947068D01*
X134240513Y-36848996D01*
X134491861Y-36799000D01*
X134748139Y-36799000D01*
X134999487Y-36848996D01*
X134999487Y-36848996D01*
G37*
G36*
X126109487Y-36848996D02*
G01*
X126346253Y-36947068D01*
X126346255Y-36947069D01*
X126559339Y-37089447D01*
X126740553Y-37270661D01*
X126882932Y-37483747D01*
X126981004Y-37720513D01*
X127031000Y-37971861D01*
X127031000Y-38228139D01*
X126981004Y-38479487D01*
X126906647Y-38659000D01*
X126882931Y-38716255D01*
X126740553Y-38929339D01*
X126559339Y-39110553D01*
X126346255Y-39252931D01*
X126346254Y-39252932D01*
X126346253Y-39252932D01*
X126109487Y-39351004D01*
X125858139Y-39401000D01*
X125601861Y-39401000D01*
X125350513Y-39351004D01*
X125113747Y-39252932D01*
X125113746Y-39252932D01*
X125113745Y-39252931D01*
X124900661Y-39110553D01*
X124719447Y-38929339D01*
X124577069Y-38716255D01*
X124553353Y-38659000D01*
X124478996Y-38479487D01*
X124429000Y-38228139D01*
X124429000Y-37971861D01*
X124478996Y-37720513D01*
X124577068Y-37483747D01*
X124719447Y-37270661D01*
X124900661Y-37089447D01*
X125113745Y-36947069D01*
X125113747Y-36947068D01*
X125350513Y-36848996D01*
X125601861Y-36799000D01*
X125858139Y-36799000D01*
X126109487Y-36848996D01*
X126109487Y-36848996D01*
G37*
G36*
X110869487Y-36848996D02*
G01*
X111106253Y-36947068D01*
X111106255Y-36947069D01*
X111319339Y-37089447D01*
X111500553Y-37270661D01*
X111642932Y-37483747D01*
X111741004Y-37720513D01*
X111791000Y-37971861D01*
X111791000Y-38228139D01*
X111741004Y-38479487D01*
X111666647Y-38659000D01*
X111642931Y-38716255D01*
X111500553Y-38929339D01*
X111319339Y-39110553D01*
X111106255Y-39252931D01*
X111106254Y-39252932D01*
X111106253Y-39252932D01*
X110869487Y-39351004D01*
X110618139Y-39401000D01*
X110361861Y-39401000D01*
X110110513Y-39351004D01*
X109873747Y-39252932D01*
X109873746Y-39252932D01*
X109873745Y-39252931D01*
X109660661Y-39110553D01*
X109479447Y-38929339D01*
X109337069Y-38716255D01*
X109313353Y-38659000D01*
X109238996Y-38479487D01*
X109189000Y-38228139D01*
X109189000Y-37971861D01*
X109238996Y-37720513D01*
X109337068Y-37483747D01*
X109479447Y-37270661D01*
X109660661Y-37089447D01*
X109873745Y-36947069D01*
X109873747Y-36947068D01*
X110110513Y-36848996D01*
X110361861Y-36799000D01*
X110618139Y-36799000D01*
X110869487Y-36848996D01*
X110869487Y-36848996D01*
G37*
G36*
X103249487Y-36848996D02*
G01*
X103486253Y-36947068D01*
X103486255Y-36947069D01*
X103699339Y-37089447D01*
X103880553Y-37270661D01*
X104022932Y-37483747D01*
X104121004Y-37720513D01*
X104171000Y-37971861D01*
X104171000Y-38228139D01*
X104121004Y-38479487D01*
X104046647Y-38659000D01*
X104022931Y-38716255D01*
X103880553Y-38929339D01*
X103699339Y-39110553D01*
X103486255Y-39252931D01*
X103486254Y-39252932D01*
X103486253Y-39252932D01*
X103249487Y-39351004D01*
X102998139Y-39401000D01*
X102741861Y-39401000D01*
X102490513Y-39351004D01*
X102253747Y-39252932D01*
X102253746Y-39252932D01*
X102253745Y-39252931D01*
X102040661Y-39110553D01*
X101859447Y-38929339D01*
X101717069Y-38716255D01*
X101693353Y-38659000D01*
X101618996Y-38479487D01*
X101569000Y-38228139D01*
X101569000Y-37971861D01*
X101618996Y-37720513D01*
X101717068Y-37483747D01*
X101859447Y-37270661D01*
X102040661Y-37089447D01*
X102253745Y-36947069D01*
X102253747Y-36947068D01*
X102490513Y-36848996D01*
X102741861Y-36799000D01*
X102998139Y-36799000D01*
X103249487Y-36848996D01*
X103249487Y-36848996D01*
G37*
G36*
X65149487Y-36848996D02*
G01*
X65386253Y-36947068D01*
X65386255Y-36947069D01*
X65599339Y-37089447D01*
X65780553Y-37270661D01*
X65922932Y-37483747D01*
X66021004Y-37720513D01*
X66071000Y-37971861D01*
X66071000Y-38228139D01*
X66021004Y-38479487D01*
X65946647Y-38659000D01*
X65922931Y-38716255D01*
X65780553Y-38929339D01*
X65599339Y-39110553D01*
X65386255Y-39252931D01*
X65386254Y-39252932D01*
X65386253Y-39252932D01*
X65149487Y-39351004D01*
X64898139Y-39401000D01*
X64641861Y-39401000D01*
X64390513Y-39351004D01*
X64153747Y-39252932D01*
X64153746Y-39252932D01*
X64153745Y-39252931D01*
X63940661Y-39110553D01*
X63759447Y-38929339D01*
X63617069Y-38716255D01*
X63593353Y-38659000D01*
X63518996Y-38479487D01*
X63469000Y-38228139D01*
X63469000Y-37971861D01*
X63518996Y-37720513D01*
X63617068Y-37483747D01*
X63759447Y-37270661D01*
X63940661Y-37089447D01*
X64153745Y-36947069D01*
X64153747Y-36947068D01*
X64390513Y-36848996D01*
X64641861Y-36799000D01*
X64898139Y-36799000D01*
X65149487Y-36848996D01*
X65149487Y-36848996D01*
G37*
G36*
X80389487Y-36848996D02*
G01*
X80626253Y-36947068D01*
X80626255Y-36947069D01*
X80839339Y-37089447D01*
X81020553Y-37270661D01*
X81162932Y-37483747D01*
X81261004Y-37720513D01*
X81311000Y-37971861D01*
X81311000Y-38228139D01*
X81261004Y-38479487D01*
X81186647Y-38659000D01*
X81162931Y-38716255D01*
X81020553Y-38929339D01*
X80839339Y-39110553D01*
X80626255Y-39252931D01*
X80626254Y-39252932D01*
X80626253Y-39252932D01*
X80389487Y-39351004D01*
X80138139Y-39401000D01*
X79881861Y-39401000D01*
X79630513Y-39351004D01*
X79393747Y-39252932D01*
X79393746Y-39252932D01*
X79393745Y-39252931D01*
X79180661Y-39110553D01*
X78999447Y-38929339D01*
X78857069Y-38716255D01*
X78833353Y-38659000D01*
X78758996Y-38479487D01*
X78709000Y-38228139D01*
X78709000Y-37971861D01*
X78758996Y-37720513D01*
X78857068Y-37483747D01*
X78999447Y-37270661D01*
X79180661Y-37089447D01*
X79393745Y-36947069D01*
X79393747Y-36947068D01*
X79630513Y-36848996D01*
X79881861Y-36799000D01*
X80138139Y-36799000D01*
X80389487Y-36848996D01*
X80389487Y-36848996D01*
G37*
M02*
