M48
; DRILL file {KiCad (5.1.4)-1} date 12/15/2019 1:31:35 AM
; FORMAT={-:-/ absolute / metric / decimal}
; #@! TF.CreationDate,2019-12-15T01:31:35-05:00
; #@! TF.GenerationSoftware,Kicad,Pcbnew,(5.1.4)-1
; #@! TF.FileFunction,NonPlated,1,2,NPTH
FMAT,2
METRIC
T1C2.500
T2C6.400
%
G90
G05
T1
X198.12Y-83.82
X189.23Y-45.72
X157.48Y-77.47
X134.62Y-38.1
X133.35Y-77.47
X149.86Y-38.1
X88.9Y-38.1
X214.63Y-96.52
X102.87Y-38.1
X162.56Y-95.25
X95.25Y-85.09
X110.49Y-38.1
X95.25Y-106.68
X80.01Y-38.1
X180.34Y-83.82
X125.73Y-38.1
X64.77Y-38.1
X189.23Y-69.85
T2
X212.09Y-41.91
X54.61Y-41.91
X54.61Y-129.54
X212.09Y-129.54
T0
M30
